<svg xmlns="http://www.w3.org/2000/svg" width="520" height="280" viewBox="0 0 520 280"><g transform="translate(-1060 -593)"><rect width="520" height="280" transform="translate(1060 593)" fill="none"/><g transform="translate(-3278.675 7480.564)"><g transform="translate(4338.675 -6864.154)"><g transform="translate(34.566 35.059)"><path d="M4389.846-6746.924c21.667,15.894,42.929,32.45,65.878,46.509,25.217,15.448,52.941,27.909,81.8,34.72,35.639,8.41,72.977,10.12,109.009,3.371,31.543-5.909,62.153-19.777,88.626-37.694a356.617,356.617,0,0,0,79.08-73.7c5.713-7.187,9.77-13.946,9.77-23.5,0-8.152-3.634-17.89-9.77-23.5-6.356-5.815-14.7-10.132-23.587-9.735-8.24.367-18.223,2.986-23.587,9.735a346.23,346.23,0,0,1-58.512,58.5l6.751-5.2a251.32,251.32,0,0,1-54.464,32.222l7.969-3.351a199.245,199.245,0,0,1-49.311,13.614l8.868-1.188c-19.79,2.567-39.932,1.871-59.683-.742l8.868,1.187a235.846,235.846,0,0,1-58.865-16.1l7.969,3.351c-37.893-16.155-70.2-41.732-103.14-65.9-6.545-4.8-18.22-5.4-25.7-3.35-7.738,2.123-16.123,8.084-19.936,15.275-4.09,7.714-6.14,17.058-3.362,25.612,2.831,8.718,7.959,14.458,15.33,19.864Z" transform="translate(-4373.241 6830.481)" fill="#fddb4e"/></g><g transform="translate(402.806)"><path d="M4751.947-6831.475c2.538.787,5.037,1.667,7.5,2.678-3.716-1.528.474.3.961.536q1.846.893,3.656,1.861a122.049,122.049,0,0,1,13.579,8.509c.387.277,3.875,2.857,2.283,1.653s1.828,1.472,2.2,1.777q3,2.463,5.894,5.06c4.126,3.7,8.081,7.595,11.877,11.635q5.143,5.472,9.882,11.307c.776.955,1.519,1.938,2.3,2.886,1.333,1.611-1.882-2.556-.066-.06,1.317,1.809,2.652,3.6,3.926,5.443,2.179,3.148,4.265,6.369,6.15,9.7.754,1.335,1.455,2.692,2.147,4.06,2.162,4.275-1.111-3.106-.02-.077,2.939,8.157,11.445,14.519,20.444,11.607,8.028-2.6,14.762-11.686,11.607-20.443-6.513-18.078-19.9-34.128-32.87-47.929-17.276-18.38-38.251-34.705-62.613-42.256-8.305-2.575-18.494,3.048-20.444,11.607a16.973,16.973,0,0,0,11.608,20.443Z" transform="translate(-4739.866 6864.154)" fill="#fddb4e"/></g><g transform="translate(0 11.136)"><path d="M4371.1-6740.714a126.746,126.746,0,0,1,4.489-15.243q.667-1.665-.33.692.421-.984.867-1.957.741-1.633,1.529-3.244,1.912-3.9,4.086-7.664a160.541,160.541,0,0,1,9.129-14.057c.708-.98,1.433-1.947,2.152-2.918,2.317-3.129-1.3,1.551.935-1.181,1.792-2.187,3.582-4.373,5.44-6.5a198.235,198.235,0,0,1,20.646-20.539c1.46-1.246,2.987-2.412,4.448-3.655,1.589-1.35-3.032,2.2-.71.563.721-.508,1.421-1.045,2.143-1.551a51.1,51.1,0,0,1,7.1-4.3c7.852-3.782,10.556-15.612,5.962-22.738-5.2-8.062-14.339-10.008-22.738-5.963-7.067,3.4-13.361,8.76-19.294,13.789a197.8,197.8,0,0,0-21.977,21.948c-16.2,18.837-30.963,40.949-35.93,65.687-1.706,8.5,2.434,18.354,11.608,20.443,8.266,1.883,18.613-2.492,20.443-11.607Z" transform="translate(-4338.675 6853.018)" fill="#fddb4e"/></g></g><g transform="translate(4626.901 -6770.4)"><path d="M4626.35-6765.371l.021,3.934s10.948-.071,17.275-.143,10.145-.426,10.145-.426l-.184-3.834s-9.951.664-16.015.8-11.242-.329-11.242-.329" transform="translate(-4625.955 6771.015)"/><g transform="translate(22.354 12.183)"><path d="M4648.536-6758.237a2.612,2.612,0,0,1,1.937.095,2.28,2.28,0,0,1,1.169,1.344,1.68,1.68,0,0,1-.257,1.777,3.239,3.239,0,0,1-.968.478c-.369.125-.754.17-1.117.306-.17.064-.219.356,0,.4a3.282,3.282,0,0,0,2.006-.488,1.823,1.823,0,0,0,.751-.634,2.039,2.039,0,0,0,.249-.951,2.834,2.834,0,0,0-1.9-2.777,2.663,2.663,0,0,0-2.014.125.181.181,0,0,0,.139.329Z" transform="translate(-4648.309 6758.832)"/></g><g transform="translate(15.227 12.072)"><path d="M4643.075-6758.052a.907.907,0,0,0-1.083.5,2.114,2.114,0,0,0-.226,1.364,2.947,2.947,0,0,0,1.466,2.169,2.782,2.782,0,0,0,4-2.29,1.762,1.762,0,0,0-.522-1.376,2.111,2.111,0,0,0-1.442-.427c-.582,0-1.169.042-1.75.077a3.019,3.019,0,0,0-1.577.429,2,2,0,0,0-.662,2.211,2.226,2.226,0,0,0,2.033,1.556,2.923,2.923,0,0,0,2.594-1.2,1.621,1.621,0,0,0,.275-1.295c-.147-.53-.652-.795-1.095-1.05-.882-.507-2.036-.876-2.875-.077a1.249,1.249,0,0,0-.355,1.274,1.8,1.8,0,0,0,.992,1.021,2.761,2.761,0,0,0,2.838-.292,2.157,2.157,0,0,0,.629-2.436,1.682,1.682,0,0,0-2.053-.981,1.494,1.494,0,0,0-1.057,2.009,1.824,1.824,0,0,0,2.426.964,1.4,1.4,0,0,0,.27-2.424,1.907,1.907,0,0,0-2.624.6c-.392.822.182,1.984,1.194,1.68a.947.947,0,0,0,.706-.851c.024-.378-.559-.374-.586,0-.016.221-.309.337-.5.3-.284-.05-.386-.38-.354-.633.092-.742,1.1-.916,1.678-.683a.738.738,0,0,1,.482.825.924.924,0,0,1-.7.719,1.228,1.228,0,0,1-1.521-.96.991.991,0,0,1,1.027-1.03,1.113,1.113,0,0,1,1.163,1c.247,1.57-1.656,2.286-2.863,1.635a1.1,1.1,0,0,1-.64-.78.809.809,0,0,1,.468-.744c.75-.427,1.6.082,2.247.472.313.189.628.391.615.8a1.451,1.451,0,0,1-.454.922,2.487,2.487,0,0,1-2,.674,1.682,1.682,0,0,1-1.456-1.158,1.513,1.513,0,0,1,.366-1.6,2.067,2.067,0,0,1,1.123-.384c.442-.045.888-.055,1.33-.079.725-.038,1.751-.154,2.058.695.5,1.387-.962,2.764-2.287,2.729a2.418,2.418,0,0,1-2.141-2.886c.085-.323.367-.78.76-.683a.158.158,0,0,0,.085-.3Z" transform="translate(-4641.181 6758.942)"/></g><g transform="translate(0.978 18.976)"><path d="M4627.138-6750.169c4.473.188,8.933.108,13.4-.147q3.318-.19,6.628-.5a35.714,35.714,0,0,0,6.349-.744.244.244,0,0,0-.064-.476,52.186,52.186,0,0,0-6.285.611q-3.42.312-6.851.514c-4.381.258-8.791.406-13.179.312a.213.213,0,0,0,0,.426Z" transform="translate(-4626.933 6752.039)"/></g><g transform="translate(27.14)"><path d="M4653.321-6770.938c-.382.518-.166,1.776-.159,2.358.022,1.759.134,3.518.209,5.275.089,2.088.157,4.177.157,6.266,0,1.783-.229,3.559-.236,5.334a.169.169,0,0,0,.33.045,16.223,16.223,0,0,0,.429-4.922c.023-2.048-.047-4.1-.131-6.143q-.111-2.685-.255-5.371c-.031-.6-.067-1.2-.078-1.8,0-.215-.085-.665.038-.859s-.172-.355-.3-.178Z" transform="translate(-4653.095 6771.015)"/></g><g transform="translate(0.269 0.284)"><path d="M4626.359-6768.826a255.145,255.145,0,0,0,26.994-1.329c.365-.033.368-.608,0-.574-8.978.833-17.976,1.468-26.994,1.622a.14.14,0,0,0,0,.281Z" transform="translate(-4626.224 6770.73)"/></g><g transform="translate(0 2.257)"><path d="M4626.239-6768.553a79.949,79.949,0,0,0-.25,9.177,52.833,52.833,0,0,0,.739,8.9.234.234,0,0,0,.457-.062c-.135-3-.5-5.991-.606-9s-.112-6.017.086-9.018c.018-.275-.4-.27-.426,0Z" transform="translate(-4625.955 6768.758)"/></g></g><g transform="translate(4642.836 -6817.962)"><path d="M4657.248-6818.253c-5,1-9.907,2.437-14.815,3.834a.806.806,0,0,0-.19,1.456,44.534,44.534,0,0,1,9.688,7.3c.573.6,1.427-.162,1.1-.848-.892-1.856-2.9-3.191-4.536-4.36-1.75-1.254-3.589-2.377-5.446-3.465l-.19,1.455c4.9-1.452,9.809-2.867,14.574-4.707a.344.344,0,0,0-.183-.663Z" transform="translate(-4641.862 6818.262)"/></g><g transform="translate(4644.328 -6813.917)"><path d="M4690.378-6803.432c-6.446-2.227-12.855-4.571-19.48-6.227-4.247-1.062-8.544-1.923-12.864-2.634-2.36-.389-4.73-.722-7.1-1.065l-3.813-.551a9.909,9.909,0,0,0-3.3-.258.757.757,0,0,0-.179,1.37,10.768,10.768,0,0,0,3.473.711l3.337.48c2.368.341,4.736.685,7.1,1.055,4.39.686,8.759,1.514,13.08,2.555,6.565,1.584,12.986,3.692,19.568,5.2a.332.332,0,0,0,.176-.64Z" transform="translate(-4643.284 6814.24)"/></g><g transform="translate(4545.205 -6816.818)"><path d="M4544.783-6816.453c4.843,1.862,9.834,3.3,14.807,4.775l-.19-1.456c-1.886,1.1-3.754,2.246-5.532,3.521-1.656,1.187-3.7,2.54-4.6,4.423-.328.679.522,1.459,1.1.848a44.814,44.814,0,0,1,9.842-7.417.807.807,0,0,0-.19-1.456c-4.985-1.419-9.966-2.88-15.048-3.9a.344.344,0,0,0-.183.663Z" transform="translate(-4544.543 6817.125)"/></g><g transform="translate(4511.672 -6812.701)"><path d="M4511.49-6801.421c6.66-1.535,13.158-3.669,19.8-5.276,4.255-1.029,8.558-1.856,12.882-2.54,2.4-.379,4.8-.73,7.209-1.077l3.874-.557a11.126,11.126,0,0,0,3.526-.718.758.758,0,0,0-.179-1.371,10.2,10.2,0,0,0-3.347.265l-3.873.56c-2.4.348-4.812.687-7.21,1.081-4.414.726-8.8,1.608-13.145,2.7-6.7,1.679-13.19,4.05-19.715,6.3a.332.332,0,0,0,.177.64Z" transform="translate(-4511.081 6813.031)"/></g><g transform="translate(4581.247 -6830.295)"><g transform="translate(15.993 30.415)"><path d="M4596.725-6799.085a24.188,24.188,0,0,0,3.984.295c.67.024,1.341.031,2.012.044a8.319,8.319,0,0,0,2.033-.024.662.662,0,0,0,0-1.267,8.356,8.356,0,0,0-2.033-.069c-.67,0-1.342-.011-2.012,0a24.225,24.225,0,0,0-3.984.2.429.429,0,0,0,0,.821Z" transform="translate(-4596.42 6800.134)"/></g><g transform="translate(15.813 26.285)"><path d="M4596.6-6803.175a5.92,5.92,0,0,0,1.224.151c.394.021.789.04,1.183.048s.789.013,1.183.013a2.816,2.816,0,0,0,1.308-.132.611.611,0,0,0,0-1.05,2.9,2.9,0,0,0-1.308-.09q-.591.015-1.183.019a14.447,14.447,0,0,0-2.407.077c-.5.089-.449.842,0,.964Z" transform="translate(-4596.24 6804.264)"/></g><g transform="translate(27.283 24.283)"><path d="M4610.818-6805.883a91.317,91.317,0,0,0-.122,14.079l.481-.481c-.462.01-.922.009-1.384,0l-.553-.01-.415-.008q-.344-.072-.025.346a.494.494,0,0,0-.717-.552.72.72,0,0,0,.1,1.3,2.961,2.961,0,0,0,1.338,0c.553-.048,1.1-.093,1.66-.119a.487.487,0,0,0,.481-.481c-.242-4.681-.24-9.4-.043-14.079.022-.518-.753-.5-.8,0Z" transform="translate(-4607.71 6806.266)"/></g><g transform="translate(12.676 38.522)"><path d="M4593.389-6791.233c2.547.872,5.295.675,7.943.578,1.388-.051,2.776-.113,4.165-.172l2.242-.1a7.176,7.176,0,0,0,2.037-.182.434.434,0,0,0,0-.829,7.13,7.13,0,0,0-2.037-.025l-1.922.075c-1.388.055-2.777.1-4.165.168a32.565,32.565,0,0,1-8.047-.3.406.406,0,0,0-.216.783Z" transform="translate(-4593.103 6792.026)"/></g><g transform="translate(10.969 25.319)"><path d="M4591.4-6804.7l.389,6.594c.065,1.1.128,2.2.195,3.3a15.2,15.2,0,0,0,.275,3.173c.123.43.861.5.941,0a14.992,14.992,0,0,0-.092-3.173q-.1-1.649-.2-3.3l-.4-6.594c-.044-.7-1.144-.71-1.1,0Z" transform="translate(-4591.396 6805.229)"/></g><g transform="translate(31.472 23.433)"><path d="M4611.981-6806.444a1.7,1.7,0,0,0,.788.375,7.449,7.449,0,0,0,.844.185,11.028,11.028,0,0,0,1.782.165,4.007,4.007,0,0,0,1.418-.22c.384-.143.988-.458.969-.942a.24.24,0,0,0-.234-.235,1.3,1.3,0,0,0-.559.191,2.883,2.883,0,0,1-.554.207,4.721,4.721,0,0,1-1.2.118,9.9,9.9,0,0,1-1.547-.127c-.268-.044-.535-.1-.8-.151a1.861,1.861,0,0,0-.774-.062.3.3,0,0,0-.131.5Z" transform="translate(-4611.899 6807.116)"/></g><g transform="translate(4.036 23.831)"><path d="M4584.534-6806.309a8.039,8.039,0,0,0,5.474,1.55c.416-.018,1.08.018,1.392-.311a.419.419,0,0,0,.074-.488.629.629,0,0,0-.641-.24,11.973,11.973,0,0,1-2.911.02,19.189,19.189,0,0,1-3.156-.929.24.24,0,0,0-.232.4Z" transform="translate(-4584.463 6806.718)"/></g><g transform="translate(32.512 7.309)"><path d="M4617.6-6806.23a8.89,8.89,0,0,0,4.687-9.761,9.316,9.316,0,0,0-2.922-4.915,9.309,9.309,0,0,0-6.06-2.328.374.374,0,0,0-.187.691,16.183,16.183,0,0,0,2.633.917,9.254,9.254,0,0,1,2.576,1.277,8.131,8.131,0,0,1,2.973,4.38,8.224,8.224,0,0,1-4.043,9.152c-.385.214-.045.782.343.587Z" transform="translate(-4612.939 6823.24)"/></g><g transform="translate(0 7.655)"><path d="M4592-6822.443c-2-.968-4.649-.214-6.524.728a9.274,9.274,0,0,0-4.348,4.745,9.045,9.045,0,0,0-.264,6.269c.609,1.863,1.926,4.005,3.78,4.844.382.172.813-.282.474-.614a11.111,11.111,0,0,1-3.244-4.384,8.176,8.176,0,0,1,.09-5.5,8.369,8.369,0,0,1,3.778-4.373,12.88,12.88,0,0,1,6.169-1.387c.163,0,.253-.248.089-.328Z" transform="translate(-4580.427 6822.894)"/></g><g transform="translate(11.093)"><path d="M4592.267-6822.658a9.128,9.128,0,0,1,3.54-4.893,11.162,11.162,0,0,1,6.252-1.765,7.657,7.657,0,0,1,5.633,2.254,23.543,23.543,0,0,1,3.331,4.894.634.634,0,0,0,1.093-.639,18.354,18.354,0,0,0-4.057-5.645,9.028,9.028,0,0,0-6.506-2.082c-4.4.221-9.506,2.933-10.03,7.775-.048.445.614.483.744.1Z" transform="translate(-4591.521 6830.549)"/></g></g><g transform="translate(4572.974 -6839.12)"><g transform="translate(0 1.005)"><path d="M4572.193-6837.719c-.144,15.52.124,31.041.237,46.56q.023,3.231.035,6.461a37.233,37.233,0,0,0,.2,6.2.507.507,0,0,0,.972,0,29.941,29.941,0,0,0,.17-5.323q-.018-2.884-.05-5.767-.062-5.914-.167-11.83c-.133-7.843-.284-15.686-.4-23.529-.063-4.258-.135-8.515-.176-12.774a.411.411,0,0,0-.821,0Z" transform="translate(-4572.151 6838.115)"/></g><g transform="translate(0.583 59.149)"><path d="M4573.149-6777.9c15.363.358,30.759-.427,46.122-.584q3.275-.033,6.55-.041c1.889,0,4.022.288,5.866-.154a.543.543,0,0,0,0-1.039,20.943,20.943,0,0,0-5.146-.183q-2.774.007-5.547.039-6.017.063-12.032.19c-8.033.158-16.066.361-24.1.563-3.9.1-7.81.205-11.714.349a.43.43,0,0,0,0,.86Z" transform="translate(-4572.735 6779.97)"/></g><g transform="translate(56.905)"><path d="M4629.224-6838.8c-.389,9.356-.02,18.789.288,28.143.246,7.479.639,14.95,1.068,22.421.177,3.086.095,6.36.821,9.379.125.523.865.375.9-.121a66.553,66.553,0,0,0-.352-8.266q-.253-4.191-.486-8.381c-.515-9.112-.857-18.23-1.134-27.352-.16-5.273-.176-10.555-.438-15.823a.332.332,0,0,0-.664,0Z" transform="translate(-4629.057 6839.12)"/></g><g transform="translate(0.037 0.279)"><path d="M4572.6-6837.289c14.5.47,29.063.381,43.563.122,4.317-.077,8.694-.026,13-.423a.625.625,0,0,0,0-1.25c-3.754-.017-7.52.247-11.274.335q-5.856.135-11.712.184c-7.513.075-15.026.047-22.539.074-3.677.014-7.358-.019-11.033.1a.43.43,0,0,0,0,.859Z" transform="translate(-4572.188 6838.841)"/></g></g><g transform="translate(4536.023 -6859.629)"><g transform="translate(0 7.657)"><path d="M4535.375-6851.739a28.958,28.958,0,0,0,1.66,7.194c.412,1.189.873,2.36,1.374,3.513a10.738,10.738,0,0,0,1.639,3.112.218.218,0,0,0,.362-.21,16.311,16.311,0,0,0-1.313-2.961q-.8-1.779-1.469-3.617a30.322,30.322,0,0,1-1.767-7.031c-.032-.306-.511-.316-.486,0Z" transform="translate(-4535.374 6851.972)"/></g><g transform="translate(4.336 18.414)"><path d="M4539.9-6837.976a26.9,26.9,0,0,0,11.1-2.772c.245-.122.069-.559-.19-.45a37.769,37.769,0,0,1-10.913,2.836c-.243.024-.253.4,0,.386Z" transform="translate(-4539.71 6841.215)"/></g><g transform="translate(0.836)"><path d="M4536.444-6851.88c4.632-1.359,9.168-3.115,13.721-4.72,1.131-.4,2.263-.794,3.393-1.2a19.227,19.227,0,0,1,3.322-1.083,2.434,2.434,0,0,1,2.608,1.436,32.243,32.243,0,0,1,1.463,2.983,67.121,67.121,0,0,1,2.833,7.419l.245-.432c-2.611.988-5.218,1.99-7.83,2.975a.36.36,0,0,0-.252.331l-.284,5.749.529-.3a20.6,20.6,0,0,0-5.311-2.7c-.441-.149-.631.548-.192.695a19.927,19.927,0,0,1,5.148,2.611.355.355,0,0,0,.529-.3l.267-5.749-.252.331c2.609-.993,5.225-1.969,7.835-2.96a.357.357,0,0,0,.245-.432,68.75,68.75,0,0,0-2.575-6.827c-.5-1.126-1.011-2.25-1.578-3.342a4.29,4.29,0,0,0-1.651-1.935,3.844,3.844,0,0,0-3,.028c-1.2.391-2.388.842-3.577,1.27q-3.68,1.323-7.359,2.648c-2.8,1.015-5.633,1.976-8.38,3.133-.222.093-.144.445.1.373Z" transform="translate(-4536.21 6859.629)"/></g><g transform="translate(4.29 9.064)"><path d="M4539.79-6848.711c.263.2.8-.059,1.088-.143.35-.1.7-.217,1.043-.332s.692-.233,1.037-.352l.5-.173a1.352,1.352,0,0,0,.569-.271.345.345,0,0,0-.241-.58,1.428,1.428,0,0,0-.6.153l-.5.173q-.519.177-1.038.35c-.347.116-.693.233-1.037.355-.3.107-.835.192-.939.536a.263.263,0,0,0,.116.284Z" transform="translate(-4539.664 6850.565)"/></g><g transform="translate(5.781 7)"><path d="M4541.369-6846.518a4.842,4.842,0,0,0,1.713-.594c.619-.253,1.234-.515,1.853-.768q1.86-.76,3.751-1.433c2.357-.84,4.941-1.363,7.122-2.618a.378.378,0,0,0-.189-.7.983.983,0,0,0-.545.1c-.189.08-.3.379-.064.492a1.272,1.272,0,0,0,.609.155l-.19-.7a17.169,17.169,0,0,1-3.491,1.392c-1.27.4-2.533.818-3.785,1.27q-1.833.661-3.635,1.4c-.54.222-1.078.446-1.608.69a4.9,4.9,0,0,0-1.7.93.223.223,0,0,0,.156.375Z" transform="translate(-4541.155 6852.63)"/></g><g transform="translate(7.642 15.27)"><path d="M4543.2-6843.025a1.138,1.138,0,0,0,.411.012c.1-.014.2-.029.3-.046a5.082,5.082,0,0,0,.622-.131,10.608,10.608,0,0,0,1.255-.477.376.376,0,0,0,.135-.513.384.384,0,0,0-.513-.134,10.137,10.137,0,0,1-1.1.407c-.195.061-.387.133-.582.192a2.369,2.369,0,0,0-.6.219.261.261,0,0,0,.062.471Z" transform="translate(-4543.016 6844.359)"/></g></g><g transform="translate(4591.552 -6866.564)"><g transform="translate(0 0.773)"><path d="M4601.876-6865.578a9.533,9.533,0,0,0-9.273,2.942,8.175,8.175,0,0,0-.81,9.218,9.387,9.387,0,0,0,7.295,4.912,12.347,12.347,0,0,0,4.328-.429,5.932,5.932,0,0,0,3.551-2.71,10.587,10.587,0,0,0,1.569-5.348,5.668,5.668,0,0,0-1.815-4.634c-.239-.184-.458.189-.3.387a6.2,6.2,0,0,1,1.448,4.156,9.856,9.856,0,0,1-1.072,4.252,5.621,5.621,0,0,1-3.177,3.024,12.942,12.942,0,0,1-3.788.535,8.35,8.35,0,0,1-6.731-3.6,7.978,7.978,0,0,1-1.569-4.136,7.546,7.546,0,0,1,1.083-4.211c1.829-3.044,5.695-4.33,9.086-3.73.407.072.587-.544.173-.627Z" transform="translate(-4590.739 6865.792)"/></g><g transform="translate(5.501)"><path d="M4596.259-6859.469c.462.987.938,1.961,1.466,2.915a11.324,11.324,0,0,0,1.534,2.538,1.03,1.03,0,0,0,1.611.045,9.293,9.293,0,0,0,1-2.223c1.359-3.393,2.475-7.037,5.036-9.756l-.61-.253-.059.242c-.176.267.165.573.424.425a.617.617,0,0,0,.35-.667.362.362,0,0,0-.61-.253c-2.18,2.3-3.408,5.221-4.536,8.135-.294.762-.587,1.525-.891,2.283-.157.391-.316.782-.486,1.167-.051.116-.111.366-.211.438-.25.18-.467-.088-.608-.251a17.708,17.708,0,0,1-1.5-2.4c-.524-.862-1.07-1.71-1.609-2.562a.171.171,0,0,0-.294.172Z" transform="translate(-4596.24 6866.564)"/></g></g><g transform="translate(4638.284 -6862.413)"><path d="M4651.263-6861.487c5.083,1.064,10.666,4.88,11.045,10.509a9.16,9.16,0,0,1-2.141,6.765c-2.062,2.26-5.207,2.646-8.107,2.4-1.239-.106-2.512-.451-3.108.92a4.084,4.084,0,0,0,.745,4.023l.643-.643a11.114,11.114,0,0,1-3.75-3.18,6.6,6.6,0,0,0-2.867-2.687,15.791,15.791,0,0,1-2.13-.766,6.088,6.088,0,0,1-1.719-1.407,6.881,6.881,0,0,1-1.6-3.743,11.6,11.6,0,0,1,1.967-7.679,11.314,11.314,0,0,1,6.33-4.128,11.833,11.833,0,0,1,8.472.99.346.346,0,0,0,.349-.6,11.694,11.694,0,0,0-7.93-1.557,12.446,12.446,0,0,0-7.2,3.8c-3.633,3.964-4.55,12.171.877,15.094.833.45,1.782.559,2.623.972a5.674,5.674,0,0,1,1.924,2.015,11.984,11.984,0,0,0,4.178,3.684c.375.2.95-.241.642-.643a3.8,3.8,0,0,1-.888-2.167,1.836,1.836,0,0,1,.465-1.45c.246-.172.663-.083.936-.054.381.042.761.087,1.144.116a16.614,16.614,0,0,0,2.41.019,8.868,8.868,0,0,0,6.873-3.562c2.951-4.2,1.806-10.079-1.815-13.468a15.821,15.821,0,0,0-8.283-3.893c-.205-.035-.3.272-.087.316Z" transform="translate(-4637.305 6862.413)"/></g><g transform="translate(4645.507 -6856.099)"><path d="M4653.147-6853.969c-1.4-.435-2.832-.792-4.255-1.164l-2.055-.537q-.554-.144-1.108-.283a2.3,2.3,0,0,0-.97-.129.3.3,0,0,0-.132.5,2.256,2.256,0,0,0,.9.35q.554.142,1.109.28l2.063.508c1.429.352,2.854.719,4.3,1.007a.276.276,0,0,0,.146-.531Z" transform="translate(-4644.538 6856.099)"/></g><g transform="translate(4644.467 -6852.986)"><path d="M4655.171-6849.948a60.805,60.805,0,0,0-5.814-1.8q-1.443-.381-2.9-.719-.754-.177-1.51-.344a2.559,2.559,0,0,0-1.253-.131.271.271,0,0,0-.119.45,2.56,2.56,0,0,0,1.173.4q.757.165,1.511.339c.97.224,1.937.464,2.9.71,1.965.5,3.914,1.06,5.878,1.564a.244.244,0,0,0,.13-.469Z" transform="translate(-4643.496 6852.986)"/></g><g transform="translate(4644.424 -6848.908)"><path d="M4654.443-6846.89a9.378,9.378,0,0,0-2.569-.761q-1.328-.3-2.668-.543a36.5,36.5,0,0,0-5.4-.714c-.4-.01-.508.651-.1.714,1.795.274,3.606.4,5.4.712q1.293.223,2.575.5a12.785,12.785,0,0,0,2.641.512.227.227,0,0,0,.113-.421Z" transform="translate(-4643.454 6848.908)"/></g><g transform="translate(4540.888 -6777.55)"><g transform="translate(20.053)"><path d="M4563.167-6778.133a57.855,57.855,0,0,0,2.186,6.913q1.178,3.486,2.39,6.96c1.657,4.779,3.486,9.569,3.792,14.668l.193-.253c-3.707,1.176-7.606,1.271-11.374,2.154-.126.029-.1.246.031.23,3.83-.453,7.806-.617,11.482-1.879a.267.267,0,0,0,.192-.252,45.714,45.714,0,0,0-2.768-11.551q-1.912-5.535-3.846-11.064a46.9,46.9,0,0,0-2.257-5.935c-.006-.012-.024,0-.021.009Z" transform="translate(-4560.271 6778.147)"/></g><g transform="translate(0 0.035)"><path d="M4563.149-6778.049a124.044,124.044,0,0,0-17.235.795,10.813,10.813,0,0,0-2.034.207.719.719,0,0,0-.319.174,5.5,5.5,0,0,0-.853,1.232,30.354,30.354,0,0,0-2.037,3.981,4.4,4.4,0,0,0-.452,1.458,2.671,2.671,0,0,0,.277.966q.393,1.091.776,2.186c.957,2.733,1.877,5.479,2.79,8.228.93,2.8,1.867,5.6,2.86,8.387.366,1.023.65,2.34,1.556,3.043a4.909,4.909,0,0,0,2.978.677,58.739,58.739,0,0,0,7.162-.433,84.78,84.78,0,0,0,9.476-1.338c.224-.05.18-.43-.055-.407-2.687.265-5.355.775-8.039,1.09-2.2.257-4.4.476-6.61.561-.86.033-1.725.051-2.586.008a3.925,3.925,0,0,1-1.815-.415,2.974,2.974,0,0,1-1.135-1.671c-.958-2.594-1.837-5.217-2.713-7.839-.85-2.547-1.681-5.1-2.54-7.643q-.677-2-1.384-4c-.247-.7-.564-1.185-.345-1.893a21.039,21.039,0,0,1,1.743-3.769c.3-.54.6-1.079.942-1.59a1.937,1.937,0,0,1,.34-.454c.259-.2.874-.142,1.221-.178,5.993-.627,12-1.047,18.031-1.1a.135.135,0,0,0,0-.27Z" transform="translate(-4540.219 6778.112)"/></g><path d="M4543.95-6776.671a13.953,13.953,0,0,0,1.843,5.471c-1.733.012-3.929.312-4.588,1.94,0,0-1.017-.251-.433-1.807a54.263,54.263,0,0,1,3.194-5.694" transform="translate(-4540.219 6778.147)"/><g transform="translate(4.619 8.296)"><path d="M4552.733-6769.851c-.936.034-1.878.2-2.807.319-.96.121-1.921.24-2.882.365-.452.058-.91.147-1.365.177-.249.017-.607-.121-.788.128-.226.309.326.648.452.35a.159.159,0,0,0-.024-.185l-.028-.031a.139.139,0,0,0-.236.1l.062-.08h.161c-.063-.072-.048-.021.047.151.047.008.094.015.14.021a1.1,1.1,0,0,0,.349-.025l.909-.126q1.022-.141,2.045-.287c1.325-.189,2.7-.3,4-.6a.139.139,0,0,0-.037-.272Z" transform="translate(-4544.837 6769.851)"/></g><g transform="translate(5.778 10.683)"><path d="M4562.855-6767.452a27.921,27.921,0,0,0-3.849.22q-2.3.218-4.586.5c-1.486.179-2.97.373-4.45.6a29.6,29.6,0,0,0-3.794.7.25.25,0,0,0,.133.482c2.8-.436,5.574-.968,8.393-1.312,1.491-.181,2.984-.337,4.477-.493,1.235-.128,2.493-.2,3.712-.43.155-.029.11-.258-.036-.265Z" transform="translate(-4545.997 6767.464)"/></g><g transform="translate(7.111 13.769)"><path d="M4564.522-6764.368a26.138,26.138,0,0,0-3.858.254c-1.545.165-3.086.364-4.625.574s-3.1.438-4.643.691a33.743,33.743,0,0,0-3.887.748.25.25,0,0,0,.133.482c2.819-.444,5.609-1.028,8.439-1.422,1.581-.22,3.166-.412,4.751-.6,1.24-.147,2.5-.233,3.726-.463.155-.029.109-.258-.036-.264Z" transform="translate(-4547.33 6764.378)"/></g><g transform="translate(20.827 19.872)"><path d="M4566.519-6758.117a8.449,8.449,0,0,0-3.984.159,2.524,2.524,0,0,0-1.207.947c-.239.368-.483,1.023-.02,1.323a2.369,2.369,0,0,0,.745.248,7.027,7.027,0,0,0,.994.158,10.432,10.432,0,0,0,2.035-.093,2.93,2.93,0,0,1,1.915.27,1.029,1.029,0,0,1,.31,1.55,3.968,3.968,0,0,1-1.857.912,3.09,3.09,0,0,1-2.2.1c-.143-.079-.347.09-.24.241.328.464.9.418,1.4.346a8.285,8.285,0,0,0,2-.545,3.03,3.03,0,0,0,1.312-.85,1.359,1.359,0,0,0,.143-1.431c-.575-1.225-2.085-1.136-3.209-1.006a7.245,7.245,0,0,1-2.135-.028c-.272-.049-.809-.085-.947-.339-.158-.291.176-.712.381-.918a3.22,3.22,0,0,1,2.1-.749,19.755,19.755,0,0,1,2.464.018c.207.011.2-.3,0-.317Z" transform="translate(-4561.046 6758.276)"/></g><g transform="translate(22.82 19.698)"><path d="M4563.064-6758.193a20.483,20.483,0,0,1,1.638,3.591c.2.571.349,1.155.535,1.729a2.484,2.484,0,0,0,.78,1.33c.191.132.414-.122.307-.307-.136-.235-.308-.439-.427-.687a5.926,5.926,0,0,1-.295-.814c-.177-.576-.36-1.148-.578-1.711a20.9,20.9,0,0,0-1.663-3.305.172.172,0,0,0-.3.174Z" transform="translate(-4563.039 6758.449)"/></g><g transform="translate(10.954 23.701)"><path d="M4551.358-6753.513a9.329,9.329,0,0,0,1.159-.09c.372-.037.743-.079,1.114-.121l1.115-.125.535-.06c.089-.01.178-.023.267-.031a1.049,1.049,0,0,1,.135-.009c.074.052.086.025.035-.082a.153.153,0,0,0,0,.26c.3.179.509-.3.341-.518a.636.636,0,0,0-.6-.144c-.282.032-.564.069-.847.1-.55.067-1.1.132-1.649.2a12.53,12.53,0,0,0-1.655.245.19.19,0,0,0,.05.372Z" transform="translate(-4551.173 6754.446)"/></g><g transform="translate(11.902 25.565)"><path d="M4552.277-6751.388a8.9,8.9,0,0,0,1.752-.32q.885-.162,1.781-.238c.575-.049,1.153-.076,1.73-.078.311,0,.623.007.933.021a3.951,3.951,0,0,0,.866.011c.264-.045.213-.413,0-.486a3.094,3.094,0,0,0-.866-.09c-.31-.012-.622-.016-.933-.013q-.933.009-1.863.11c-.6.067-1.192.158-1.781.277a5.019,5.019,0,0,0-1.7.508.161.161,0,0,0,.081.3Z" transform="translate(-4552.121 6752.582)"/></g></g><g transform="translate(4626.563 -6811.719)"><path d="M4806.727-6709.752c-.441-1.284-1.177-2.387-1.514-3.7a15.887,15.887,0,0,0-2.431-4.518c-1.364-2.014-3.035-3.9-3.76-6.209-.693-2.208-.457-4.606-.631-6.924a9.744,9.744,0,0,0-1.144-4.183,4.912,4.912,0,0,0-1.4-1.606,7.92,7.92,0,0,1-1.262-.765c-.441-.456-.217-1.1-.342-1.652a1.459,1.459,0,0,0-.473-.806.855.855,0,0,0-.4-.192,1.434,1.434,0,0,0-.388.047c-3.845-5.9-3.962-13.382-3.531-20.46s1.277-14.375-.97-21.019a6.819,6.819,0,0,0-.924-1.927,5.976,5.976,0,0,0-2.592-1.838.693.693,0,0,1-.4.93,41.238,41.238,0,0,1-16.987,3.076,45.415,45.415,0,0,1-8.468-.578c-.257-.049-.511-.111-.765-.173a81.644,81.644,0,0,0-10.4,21.827l8.431,2.176c-1.63-.422-3.1-2.056-3.5-.338a28.134,28.134,0,0,0,2.621,13.694,3.548,3.548,0,0,0,1.689,1.806c.942.391,4.392-.311,5.367-.716a41.361,41.361,0,0,1,6.24-1.993c.817-.05-2.567-1.089-2.209-.375a30.221,30.221,0,0,1,1.17,2.906,3.071,3.071,0,0,0,.078.951q.379,2.071.608,4.171c.034.307.292,3.681.286,3.681a5.128,5.128,0,0,0-3.63,1.333c-1.006,1.072-.619,2.523-.6,3.782a4.878,4.878,0,0,1-.271,2.456c-.419.652-.953,1.255-1.383,1.906-.942,1.425-1.794,2.9-2.611,4.389-2.775,5.057-20.388,28.29-20.388,28.29a34.309,34.309,0,0,0-8.365-15.421c-6.6-6.727-6.973-9.747-15.583-14.692s-9-2.2-12.444-2.756-12.725-1.807-17.384,5.667,2.764,8.915,2.764,8.915-7.077,13.115-.916,9.518,9.067-12.673,11.524-13.445,5.3.364,3.006,3.1-2.362,4.743-.489,3.436,12.392-1,12.608.059,0,0,1.524,1.655a9.841,9.841,0,0,1,1.494,2.7,46.248,46.248,0,0,1,1.888,5.016c.443,1.406.806,2.808,1.311,4.192q.922,2.529,1.844,5.059l3.689,10.119,4.87,13.356c-2.538-.958-3.4-3.826-5-5.9-3.106-4.012-8.978-4.94-14.292-5.573a3.54,3.54,0,0,0-2.084.176,3.274,3.274,0,0,0-.932.842,31.986,31.986,0,0,0-3.519,5.1c-6.251-.322-12.332,5.5-11.885,11.385q4.984-.631,9.969-1.263a1.95,1.95,0,0,1,1.566.24c.641.6.033,1.631-.044,2.5-.117,1.332,1.2,2.387,2.6,2.573.052.007.1.013.158.017a9.478,9.478,0,0,0,4.264-1.007c3.857,3.509,10.216,2.532,15.543,3.555,2.472.474,4.79,1.414,7.2,2.091a68.973,68.973,0,0,0,10.854,1.827c5.5.627,10.991,1.255,16.5,1.832,9.04.949,18.619,1.686,27.093-1.961a4.5,4.5,0,0,0,1.9-1.273,4.068,4.068,0,0,0,.636-1.8c1.194-7.014.145-14.225,2.143-21.11s6.831-12.772,10.208-19.207C4806.767-6697.952,4808.614-6704.258,4806.727-6709.752Z" transform="translate(-4624.948 6813.105)" fill="#fff"/><g transform="translate(58.333 91.334)"><path d="M4703.228-6715.421c-3.725-.025-6.281,2.734-8.652,5.261a47.367,47.367,0,0,0-5.231,6.358,8.062,8.062,0,0,1-1.646,2.267,4.262,4.262,0,0,1-2.306.647c-.3.008-1.241.014-1.357-.169a8.861,8.861,0,0,1,.161-1.146c.066-.433.151-.862.245-1.289a22.375,22.375,0,0,1,4.97-9.533,33.34,33.34,0,0,1,10.006-8.074c.413-.219.047-.846-.367-.627a33.927,33.927,0,0,0-9.641,7.561,23.912,23.912,0,0,0-5.5,9.576,20.743,20.743,0,0,0-.508,2.553c-.056.428-.269,1.152.047,1.522.559.654,2.265.411,2.961.278a4.4,4.4,0,0,0,1.867-.79,7.873,7.873,0,0,0,1.554-2.156,33.327,33.327,0,0,1,2.685-3.69c1.292-1.513,2.654-2.992,4.043-4.416,1.779-1.823,4.008-3.663,6.668-3.793a.17.17,0,0,0,0-.34Z" transform="translate(-4683.281 6721.771)"/></g><g transform="translate(62.083 87.197)"><path d="M4704.792-6725.044a10.494,10.494,0,0,0-10.543,1.287,19.787,19.787,0,0,0-4.11,4.66,27.808,27.808,0,0,0-3.1,5.979l.726.1a8.665,8.665,0,0,0,.017-1.126.247.247,0,0,0-.483-.066,8.81,8.81,0,0,0-.26,1.094.37.37,0,0,0,.713.2,25.789,25.789,0,0,1,6.469-9.854,10.383,10.383,0,0,1,10.4-1.873c.227.089.393-.3.167-.4Z" transform="translate(-4687.031 6725.908)"/></g><g transform="translate(57.22 89.732)"><path d="M4692.638-6723.357a23.445,23.445,0,0,0-7.618,4.51,8.546,8.546,0,0,0-2.765,7.26.377.377,0,0,0,.362.276,6.961,6.961,0,0,0,1.776-.129.254.254,0,0,0,0-.486,6.9,6.9,0,0,0-1.776-.135l.362.275c-.426-2.612,1.033-5.147,2.864-6.9a24.354,24.354,0,0,1,6.982-4.23c.248-.112.067-.551-.187-.444Z" transform="translate(-4682.168 6723.374)"/></g><g transform="translate(78.344 87.66)"><path d="M4703.541-6724.662c4.226-.865,8.248.652,11.9,2.689a55.83,55.83,0,0,1,10.1,6.866c5.571,4.993,8.485,11.838,11.55,18.483.227.494.933.064.723-.423-3.059-7.088-6.658-14.48-12.757-19.457a58.7,58.7,0,0,0-10.434-6.725c-3.477-1.763-7.331-2.846-11.2-1.817a.2.2,0,0,0,.106.384Z" transform="translate(-4703.292 6725.446)"/></g><g transform="translate(88.474 104.02)"><path d="M4713.491-6708.687a18.75,18.75,0,0,1,3.1,5.1c1.4,2.873,2.66,5.813,3.868,8.77,2.584,6.328,5.009,12.731,7.1,19.239.707,2.2,1.318,4.408,1.909,6.634a.332.332,0,0,0,.65-.088,24.445,24.445,0,0,0-1.481-5.808c-.977-3.075-2.05-6.12-3.164-9.148a177.7,177.7,0,0,0-8.032-19.206c-1-1.965-2.017-4.266-3.625-5.828a.234.234,0,0,0-.331.331Z" transform="translate(-4713.422 6709.086)"/></g><g transform="translate(112.872 81.521)"><path d="M4764.365-6731.331c1.041,6.085-2.02,11.907-5.29,16.81-2.481,3.721-5.16,7.26-7.3,11.2a161.627,161.627,0,0,0-10.438,24.374,80.285,80.285,0,0,0-3.513,12.445c-.075.437.563.633.678.187a181.285,181.285,0,0,1,8.189-24.158c1.714-4.125,3.56-8.207,5.663-12.15,2.194-4.112,4.956-7.809,7.5-11.7,3.306-5.064,6.132-10.912,4.9-17.11-.051-.257-.434-.146-.39.107Z" transform="translate(-4737.82 6731.584)"/></g><g transform="translate(105.357 101.946)"><path d="M4730.324-6710.835c.906,1.943,2.026,3.8,2.979,5.727,1.076,2.173,2.083,4.379,3.046,6.6q1.359,3.145,2.582,6.348a36.252,36.252,0,0,0,1.84,4.676c.113.207.5.128.469-.127a20.4,20.4,0,0,0-1.565-4.909q-1.222-3.136-2.584-6.219-1.462-3.327-3.092-6.578a34.306,34.306,0,0,0-3.349-5.774c-.155-.2-.418.054-.326.252Z" transform="translate(-4730.305 6711.16)"/></g><g transform="translate(115.091 86.678)"><path d="M4740.36-6690.228c1.929-3.365,3.61-6.833,5.7-10.115,2.062-3.237,4.281-6.372,6.54-9.475,2.685-3.687,5.1-7.481,7.639-11.268.691-1.032,1.392-2.061,2.151-3.045a5.19,5.19,0,0,1,1.573-1.569c.449-.226.051-.918-.4-.678-1.208.649-2.154,2.433-2.91,3.517-1.342,1.924-2.6,3.906-3.855,5.886-3.255,5.135-7.085,9.872-10.4,14.975-2.361,3.636-4.909,7.528-6.355,11.641-.064.184.216.295.311.131Z" transform="translate(-4740.04 6726.428)"/></g><g transform="translate(121.046 27.23)"><path d="M4759.364-6785.823a53.262,53.262,0,0,0-9.255,12.115,37.274,37.274,0,0,0-4.114,13.831.375.375,0,0,0,.276.362q2.917.48,5.848.889a32.4,32.4,0,0,0,5.062.573.306.306,0,0,0,.081-.6,8.838,8.838,0,0,0-2.107-.332q-1.542-.189-3.081-.4-2.808-.389-5.6-.854l.275.361c.949-10,6.186-18.436,12.859-25.706.148-.16-.087-.4-.24-.24Z" transform="translate(-4745.994 6785.875)"/></g><g transform="translate(133.553 39.857)"><path d="M4761-6772.157l-.021-.11-.01-.054-.005-.028,0-.011a.373.373,0,0,0-.062-.149.794.794,0,0,0-.062-.147,1.194,1.194,0,0,0-.428-.428.88.88,0,0,0-.444-.142.918.918,0,0,0-.476.021,1.2,1.2,0,0,0-.526.307.549.549,0,0,0-.1.125.457.457,0,0,0-.1.124l-.007.012-.014.026-.026.049-.054.1a1.256,1.256,0,0,0-.174.643,1.258,1.258,0,0,0,.174.643,1.273,1.273,0,0,0,.457.457.948.948,0,0,0,.474.152.966.966,0,0,0,.508-.023,1.271,1.271,0,0,0,.562-.328,1.276,1.276,0,0,0,.328-.562,1.279,1.279,0,0,0,0-.678Z" transform="translate(-4758.501 6773.248)"/></g><g transform="translate(130.433 58.296)"><path d="M4755.53-6751.581a3.956,3.956,0,0,0,.433.212,4.652,4.652,0,0,0,.566.077,6.922,6.922,0,0,0,1.256.023,9.209,9.209,0,0,0,2.4-.5,9.194,9.194,0,0,0,2.134-1.073,3.87,3.87,0,0,0,1.613-1.7.219.219,0,0,0-.318-.245,3.933,3.933,0,0,0-.8.629,9.572,9.572,0,0,1-.878.671,8.437,8.437,0,0,1-2.013,1.017,8.394,8.394,0,0,1-2.144.45,9.929,9.929,0,0,1-1.078.021c-.178-.007-.356-.022-.534-.038-.2-.018-.39.046-.586.035-.254-.014-.272.343-.057.42Z" transform="translate(-4755.381 6754.809)"/></g><g transform="translate(137.682 68.839)"><path d="M4765.545-6731.48a84.859,84.859,0,0,1,13.382-7.409,57.511,57.511,0,0,1,15.343-4.542l-.419-.419c-.023.882-.048,1.763-.062,2.645a6.394,6.394,0,0,1-.305,2.734c-.33.689-.644.722-1.307.955-.435.153-.873.3-1.309.452-.726.255-1.449.519-2.17.787q-4.386,1.63-8.668,3.523a154.845,154.845,0,0,0-17.171,8.913.48.48,0,0,0,.485.829,154.946,154.946,0,0,1,18.865-9.648c3.36-1.436,6.777-2.721,10.221-3.941,1.092-.386,2-.7,2.224-1.947a31.2,31.2,0,0,0,.035-5.3.425.425,0,0,0-.531-.4,103.221,103.221,0,0,0-15.128,4.593,64.17,64.17,0,0,0-13.751,7.725c-.263.2-.024.647.266.456Z" transform="translate(-4762.63 6744.267)"/></g><path d="M4792.842-6803.246a17.282,17.282,0,0,0-11.306-2.047,4.74,4.74,0,0,1-3.054.024c-1.256-.665-1.226-2.343-1.628-3.657-1.116-3.647-6.128-4.768-10.145-3.9a18.014,18.014,0,0,0-12.933,11.035,14.914,14.914,0,0,0,3.363,15.578,9.017,9.017,0,0,0,2.662,1.409,30.141,30.141,0,0,1,9.037-.356,3.688,3.688,0,0,1,2.389.9,3.368,3.368,0,0,1,.651,1.92,57.4,57.4,0,0,1-.45,16.3,1.076,1.076,0,0,0,.093.865,1.078,1.078,0,0,0,.665.3,8.186,8.186,0,0,0,2.847.018,1.737,1.737,0,0,0,1.1-.508,1.784,1.784,0,0,0,.231-1.208c-.147-4.53,3.095-9.133,7.642-10.849a4.472,4.472,0,0,1,2.23-.359,3.1,3.1,0,0,1,2.273,3.644,8.717,8.717,0,0,1-1.411,3.23c-1.458,2.578-5.574,6.346-5.2,11.763s9.582,4.854,9.582,4.854,12.117-16.443,13.592-30.25-6.592-13.4-6.592-13.4S4797.455-6800.817,4792.842-6803.246Z" transform="translate(-4624.948 6813.105)"/><g transform="translate(74.951 97.677)"><path d="M4706.142-6715.418a10.023,10.023,0,0,0-5.177,3.991,5.715,5.715,0,0,0-.423,5.918.365.365,0,0,0,.623,0c1.127-1.979,3.646-2.642,5.667-3.3,2.531-.826,5.1-1.4,7.666-.391.381.15.647-.482.28-.664-2.594-1.283-5.677-.485-8.266.373-2.183.725-4.766,1.476-5.97,3.62h.623a5.14,5.14,0,0,1,.588-5.476,9.429,9.429,0,0,1,2.076-2.069c.792-.589,1.688-1.026,2.475-1.615.18-.134.085-.456-.162-.385Z" transform="translate(-4699.899 6715.428)"/></g><g transform="translate(8.28 95.967)"><g transform="translate(131.458)"><path d="M4772.295-6716.993a85.486,85.486,0,0,0-.318,24,.377.377,0,0,0,.7.188,9.517,9.517,0,0,0,1.37-5.019,16.865,16.865,0,0,1,1.79-6.162c1.612-3.268,3.724-6.372,4.1-10.087.032-.319-.411-.378-.56-.152a15.434,15.434,0,0,0-2,5.357q-.743,3.39-1.208,6.832a86.578,86.578,0,0,0-.766,12.874c.06,4.334.336,8.951-1.551,12.984-1.63,3.484-4.888,6.381-8.828,6.719-.436.038-.451.7,0,.692a10.775,10.775,0,0,0,8.469-5.08c2.335-3.409,2.761-7.6,2.754-11.627a138.758,138.758,0,0,1,.33-14.1q.375-3.76,1.085-7.478c.45-2.367.874-4.828,2.231-6.869l-.56-.152c-.445,3.837-2.843,7.007-4.438,10.418a15.937,15.937,0,0,0-1.451,4.6c-.279,2.045-.154,4.112-1.411,5.871l.7.189a93.91,93.91,0,0,1-.027-23.945c.028-.227-.367-.283-.4-.055Z" transform="translate(-4764.687 6717.139)"/></g><g transform="translate(88.407 44.288)"><path d="M4721.848-6672.394c2.876-.451,4.65,1.829,6.49,3.6a12.633,12.633,0,0,0,4.064,2.625c3.616,1.467,7.667,1.556,11.511,1.4a76.381,76.381,0,0,0,12.973-1.641c4.235-.907,8.853-1.994,12.728-3.983a.309.309,0,0,0-.237-.562c-2.227.662-4.377,1.584-6.606,2.256q-3.12.94-6.312,1.614a74.611,74.611,0,0,1-13.7,1.6c-3.972.091-8.293-.1-11.813-2.152-3-1.751-5.154-6.017-9.188-5.093-.217.049-.12.36.091.327Z" transform="translate(-4721.635 6672.851)"/></g><path d="M4656.186-6657.928c20.27-1,41.545-2.248,61.7-1.14.873.048,1.546,3.268,1.491,4.095a5.087,5.087,0,0,1-4,1.213l-3.791,1.873a228.37,228.37,0,0,0-51.631,1.873S4656.62-6656.145,4656.186-6657.928Z" transform="translate(-4633.228 6717.139)"/><path d="M4663.566-6652.053l-8.084.961-22.254-63.841,8.5-1.817Z" transform="translate(-4633.228 6717.139)"/><g transform="translate(60.99 43.111)"><path d="M4694.559-6662.624a14.259,14.259,0,0,1,4.614-5.723,7.3,7.3,0,0,1,3.948-1.63,36.124,36.124,0,0,1,3.811.629,18.33,18.33,0,0,0,7.44-1.332,67.38,67.38,0,0,0,8.255-2.806c.315-.153.082-.6-.226-.536a38,38,0,0,0-4.705,1.522c-1.457.493-2.912.994-4.376,1.466a20.337,20.337,0,0,1-4.6,1.052,20.921,20.921,0,0,1-4.669-.555c-4.373-.613-8.565,4-9.826,7.773-.065.192.245.328.332.14Z" transform="translate(-4694.218 6674.027)"/></g><g transform="translate(70.226 39.53)"><path d="M4703.7-6669.912a38.9,38.9,0,0,1,3.859-3.764,25.212,25.212,0,0,1,2.389-1.75,9.11,9.11,0,0,1,2.675-1.408,5.42,5.42,0,0,1,2.914.632c.871.324,1.737.663,2.576,1.062a11.681,11.681,0,0,1,4.179,3.172c.232.284.66.032.674-.279.007-.183.017-.366.028-.549.023-.4-.648-.5-.714-.1-.027.181-.057.361-.089.541l.721-.094a10.96,10.96,0,0,0-4.413-3.355c-.855-.4-1.736-.741-2.622-1.065a7.175,7.175,0,0,0-3.018-.73,6.374,6.374,0,0,0-2.575,1.151,26.161,26.161,0,0,0-2.436,1.708,19.846,19.846,0,0,0-4.369,4.655.141.141,0,0,0,.221.17Z" transform="translate(-4703.454 6677.609)"/></g><g transform="translate(64.805 51.722)"><path d="M4698.18-6660.128c1.857-.665,3.223-2.072,4.9-3.046a10.771,10.771,0,0,1,6.108-1.439l-.2-.737c-1.016.626-2.023,1.266-3.031,1.907-.968.615-1.98,1.2-2.886,1.9-.333.259.09.728.43.557,1.027-.519,1.987-1.2,2.959-1.813s1.957-1.237,2.927-1.869a.4.4,0,0,0-.2-.737,11.05,11.05,0,0,0-6.043,1.411c-1.808,1.044-3.194,2.7-5.058,3.65-.116.06-.035.26.091.215Z" transform="translate(-4698.033 6665.417)"/></g><g transform="translate(71.619 55.049)"><path d="M4704.953-6659.774c1.545.464,3.411-.194,4.9-.613.827-.233,1.655-.458,2.5-.622a12.358,12.358,0,0,1,1.373-.2c.468-.038.941.012,1.4-.061.491-.077.313-.762-.109-.806a5.89,5.89,0,0,0-1.295.115c-.4.05-.805.1-1.2.171a18.691,18.691,0,0,0-2.493.66c-.813.263-1.622.537-2.452.741a17.656,17.656,0,0,1-2.578.325.15.15,0,0,0-.04.293Z" transform="translate(-4704.847 6662.089)"/></g><g transform="translate(44.471 56.176)"><path d="M4679.5-6657.344c.2-.135.42-.255.6-.4s.326-.306.5-.45a3.123,3.123,0,0,1,1.146-.606,10.358,10.358,0,0,1,3.023-.172l-.834-.479a2.076,2.076,0,0,1,.141,1.074l1.837-.315a8.454,8.454,0,0,1-.966-1.183,1.09,1.09,0,0,0-1.03-.312.917.917,0,0,0-.79.624c-.067.25-.136.5-.214.743l1.867.185c.124-.648-.287-1.334-1.367-1.327-1.109.006-1.428.847-1.778,1.413l1.669-.294a2.512,2.512,0,0,1-.545-.641c-.249-.406-1.066-.43-1.538-.146a3.242,3.242,0,0,0-1.333,1.4l1.626-.286c-.467-.462-1.473-.345-2.2-.274l-.117.012c-.129.015.034.019.084,0a.815.815,0,0,1-.176.008c-.173.011-.063,0,.053.016-.125-.023.134.047.127.044a.449.449,0,0,1,.288.326c.045.167.05.173.039.109.017.1-.026.065.006,0,.04-.081.073-.163.118-.244a1.536,1.536,0,0,1,.34-.438,1.308,1.308,0,0,1,.713-.371c.289-.052.583-.088.875-.122.191-.022.381-.043.572-.061.093-.009.187-.016.279-.025.114-.011-.048,0-.058,0l.2-.013c.37-.022.73-.017,1.1-.011.153,0-.228-.03,0,0,.028,0,.058.014.085.016.132.009-.132-.041-.131-.041a3.83,3.83,0,0,1,.465.144,2.729,2.729,0,0,0,.472.048c.081,0,.128.034.012-.006a.371.371,0,0,1-.344-.2q-.318-.345-.254-.126s0-.1-.008,0a1.751,1.751,0,0,1-.019.188,4.646,4.646,0,0,1-.182.679l1.9-.511c-.132-.089.049.065.063.1.033.087-.2.372-.036.226l-1.939-.19a1.9,1.9,0,0,1,.141.427c0,.015.029.176.019.089l.013.193c0,.091.009.107.011.05a.858.858,0,0,0,.981.746,1.119,1.119,0,0,0,1.167-.725,2,2,0,0,0-.31-1.317c-.289-.524-1.419-.448-1.851-.008a.9.9,0,0,0,.1,1.449c.49.368,1.64.237,1.842-.324a2.311,2.311,0,0,0,.163-1.539,1.141,1.141,0,0,0-1.091-.632c-.076,0-.151-.008-.228-.006-.174,0,.029.013.077.015s.048.014.006,0l-.252-.075a4.48,4.48,0,0,0-1.189-.073c-.112,0-.223.011-.335.019s-.6.046-.313.023c-.312.025-.624.049-.936.082a6.334,6.334,0,0,0-2.849.75,3.31,3.31,0,0,0-1.156,1.308c-.21.444-.294.944.343,1.2a3.266,3.266,0,0,0,1.515.053l.3-.031c-.292.031.058,0,.132,0a1,1,0,0,0,.108,0c.08-.008-.218-.045-.044,0,.106.027-.187-.068-.1-.029.042.018-.164-.128-.048-.015a1.225,1.225,0,0,0,1.626-.286,1.729,1.729,0,0,1,.821-.8l-1.538-.146a3.745,3.745,0,0,0,.842.924,1.264,1.264,0,0,0,1.669-.294l.209-.338c.059-.094.2-.238.209-.338q-.2.306-.875.191a.3.3,0,0,1-.157-.161c.048.029,0,.1-.01.184-.048.355.36.661.877.666a1,1,0,0,0,1.043-.648c.079-.3.164-.606.256-.909l-1.82.312a6.628,6.628,0,0,0,1.091,1.33,1.234,1.234,0,0,0,1.023.142c.354-.1.653-.331.673-.6a2.751,2.751,0,0,0-.239-1.4.859.859,0,0,0-.834-.479,10.879,10.879,0,0,0-3.924.5,4.5,4.5,0,0,0-1.5.947,3.236,3.236,0,0,0-.495.594,1.888,1.888,0,0,0-.2.65c-.052.245.425.38.684.2Z" transform="translate(-4677.699 6660.963)"/></g><g transform="translate(96.386 50.684)"><path d="M4734.658-6666.167c-.106,3.37-.046,6.748-.11,10.119-.038,1.992-.088,3.988-.238,5.975a8.809,8.809,0,0,1-1.218,4.537c-.249.369-.608.906-1.078.594a2.912,2.912,0,0,1-.762-1.419,37.574,37.574,0,0,1-.965-5.063c-.074-.387-.671-.288-.673.091a16.685,16.685,0,0,0,.806,4.953c.246.776.6,1.885,1.426,2.238,1.6.691,2.7-2.275,2.918-3.4a34.806,34.806,0,0,0,.431-5.554c.078-2.479.075-4.959.07-7.439,0-1.877-.052-3.757-.009-5.634a.3.3,0,0,0-.6,0Z" transform="translate(-4729.614 6666.455)"/></g></g><g transform="translate(151.847 35.823)"><path d="M4779.941-6776.074a1.166,1.166,0,0,0-.028-1.06.313.313,0,0,0-.421-.111,4.476,4.476,0,0,0-1.128.912,5.815,5.815,0,0,0-.856,1.166,4.943,4.943,0,0,0-.7,2.708c.021.333.557.458.621.085a7.535,7.535,0,0,1,.778-2.387,6.812,6.812,0,0,1,.705-1.03c.291-.357.64-.642.958-.971h-.435a.352.352,0,0,1,.12.46c-.111.261.26.495.391.228Z" transform="translate(-4776.795 6777.282)"/></g><path d="M4804.778-6704.632a7.586,7.586,0,0,0,4.882-3.915,5.526,5.526,0,0,1-1.074-3.408,7.8,7.8,0,0,1,.291-2.566,5.451,5.451,0,0,1,.462-1.035,9.923,9.923,0,0,0-3.025-3.143c-1.536-.975-3.34-.224-4.16.222a4.79,4.79,0,0,0-.445.269l-.209,4.09s-.033,16.684.579,27.152-6.909,39.257-6.909,39.257l1.453.653,11.806-52.178-4.2-.981Z" transform="translate(-4624.948 6813.105)"/><g transform="translate(171.735 92.687)"><path d="M4811.5-6708.238c-.991-.52-1.175-2.051-1.3-3.044a7.244,7.244,0,0,1,.272-3.6,5.873,5.873,0,0,1,7.315-3.539c2.834.949,5.361,4.465,3.84,7.393a7.45,7.45,0,0,1-3.318,3.088,11.83,11.83,0,0,1-2.183.783c-.947.27-1.023.738-1.352,1.647a384.259,384.259,0,0,0-13.37,46.032q-1.47,6.527-2.713,13.1c-.414,2.189-.814,4.381-1.172,6.58a46.963,46.963,0,0,0-.839,6.371.759.759,0,0,0,1.484.2,70.716,70.716,0,0,0,1.4-7.241c.426-2.349.845-4.7,1.3-7.041q1.386-7.158,3.04-14.259,3.315-14.238,7.688-28.2c1.675-5.351,3.49-10.654,5.362-15.939l-.668.667a10.03,10.03,0,0,0,7.127-5.3c1.249-2.812-.075-5.912-2.264-7.859a7.622,7.622,0,0,0-8.029-1.449,7.706,7.706,0,0,0-4.508,5.9c-.26,2.1.106,5.846,2.483,6.68a.535.535,0,0,0,.411-.974Z" transform="translate(-4796.684 6720.419)"/></g><g transform="translate(177.538 104.537)"><path d="M4810.458-6708.176c-1.707,5.029-3.39,10.063-4.878,15.162-.722,2.472-1.384,4.959-1.947,7.473-.3,1.323-.555,2.651-.769,3.991a13.45,13.45,0,0,0-.335,3.717.542.542,0,0,0,1.059.143,19.777,19.777,0,0,0,.845-3.674q.385-1.869.812-3.733c.59-2.588,1.265-5.159,1.976-7.716,1.4-5.034,2.989-10.011,4.321-15.064a.563.563,0,0,0-1.084-.3Z" transform="translate(-4802.486 6708.568)"/></g><g transform="translate(93.902 169.845)"><path d="M4719.264-6642.638c-.069,1.869-.194,3.736-.279,5.6a33.944,33.944,0,0,0-.031,5.439.733.733,0,0,0,1.465,0,54.159,54.159,0,0,0,.191-5.439c.032-1.869.008-3.737-.057-5.6a.645.645,0,0,0-1.289,0Z" transform="translate(-4718.851 6643.261)"/></g><g transform="translate(89.063 170.363)"><path d="M4714.637-6642.3a35.852,35.852,0,0,0-.591,5.461c-.033.926-.044,1.855-.025,2.781.016.791-.064,2.046.5,2.66a.681.681,0,0,0,1.058-.137c.4-.628.165-1.81.129-2.523q-.07-1.389-.074-2.781a41.843,41.843,0,0,1,.231-5.294c.087-.7-1.1-.858-1.232-.167Z" transform="translate(-4714.012 6642.742)"/></g><g transform="translate(21.784 171.024)"><path d="M4646.841-6641.551c-.131,1.836-.113,3.68-.1,5.519.008.971.035,1.939.067,2.909a8.686,8.686,0,0,0,.225,2.748.6.6,0,0,0,1.152,0,7.066,7.066,0,0,0,.126-2.66c-.033-1-.086-2-.153-3-.122-1.836-.245-3.677-.216-5.519.011-.715-1.052-.7-1.1,0Z" transform="translate(-4646.732 6642.082)"/></g><g transform="translate(14.832 171.241)"><path d="M4640.19-6640.974c.81-.05,2.045.114,2.468.937a2.042,2.042,0,0,1-.092,1.431,14.905,14.905,0,0,0-.379,1.709,19.41,19.41,0,0,0-.21,3.4c.011.553.033,1.107.07,1.658a2.721,2.721,0,0,0,.44,1.649.579.579,0,0,0,.9-.116,3.392,3.392,0,0,0,.155-1.947c-.038-.656-.065-1.312-.065-1.969a16.656,16.656,0,0,1,.445-4.01c.261-1.059.323-2.136-.635-2.866a4.4,4.4,0,0,0-3.1-.732c-.532.065-.561.89,0,.856Z" transform="translate(-4639.78 6641.864)"/></g><g transform="translate(0.107 161.888)"><path d="M4625.055-6650.708c0,3.456.289,6.9.287,10.36a.575.575,0,0,0,.568.567c9.879-.1,19.767-.1,29.643-.36,1.007-.027,2.016-.033,3.022-.08.288-.013.57-.039.856-.074.123-.014.5-.043.338-.04a.5.5,0,0,0,0-1.008c.147,0-.113-.01-.236-.022-.225-.021-.451-.049-.677-.059-.823-.036-1.658,0-2.482.007-2.714.007-5.428.061-8.142.1-6.036.087-12.071.211-18.106.322l-4.216.078.568.568c-.026-3.457-.343-6.9-.368-10.36a.528.528,0,0,0-1.055,0Z" transform="translate(-4625.055 6651.217)"/></g><g transform="translate(3.071 169.692)"><path d="M4628.093-6640.3c27.62.375,55.276-.519,82.891-1.111a52.486,52.486,0,0,0,7.638-.37,43.993,43.993,0,0,1,5.454-.545.534.534,0,0,0,0-1.067c-3.571-.145-7.028.445-10.6.519q-10.238.21-20.473.442c-13.816.311-27.632.616-41.446.987-7.831.21-15.648.558-23.469.993a.076.076,0,0,0,0,.152Z" transform="translate(-4628.02 6643.413)"/></g><g transform="translate(72.159 158.818)"><path d="M4697.663-6651.339c7.227-.956,14.593-.483,21.84-1.241.775-.081,1.158-.082,1.551.719a16.114,16.114,0,0,1,1.056,2.948,22.962,22.962,0,0,1,.648,3.411,8.205,8.205,0,0,0,.409,2.658.676.676,0,0,0,1.163,0c.645-1.513.022-3.753-.32-5.309-.371-1.688-.877-4-2.041-5.344-1.123-1.3-3.087-.631-4.691-.513-4.914.364-9.816.812-14.731,1.15-1.674.116-3.372.171-5.035.4-.628.087-.485,1.2.151,1.116Z" transform="translate(-4697.107 6654.288)"/></g><g transform="translate(0 159.098)"><path d="M4625.31-6650.442c23.775.891,47.633.445,71.385-.858q4.913-.27,9.817-.632a66.886,66.886,0,0,0,9.086-.9c.672-.144.49-1.139-.158-1.162a78.633,78.633,0,0,0-8.131.491c-2.843.2-5.688.372-8.533.541q-8.938.532-17.888.855c-12.187.453-24.376.658-36.571.76-6.336.054-12.671.136-19.007.154a.375.375,0,0,0,0,.75Z" transform="translate(-4624.948 6654.007)"/></g><g transform="translate(166.732 74.921)"><path d="M4791.811-6737.718c2.5,1.3,3.856,4.125,5.034,6.557a44.579,44.579,0,0,1,3.07,8.359,41.84,41.84,0,0,1,1.275,8.606,42.266,42.266,0,0,1-.035,4.337,34.45,34.45,0,0,0-.4,4.55c.027.334.552.58.715.194a13.782,13.782,0,0,0,.65-4.309,42.4,42.4,0,0,0,.059-4.772,43.165,43.165,0,0,0-1.424-9.283,38.995,38.995,0,0,0-3.37-8.494c-1.29-2.379-2.745-5.013-5.313-6.185-.293-.134-.553.287-.257.44Z" transform="translate(-4791.681 6738.184)"/></g><g transform="translate(164.231 87.141)"><path d="M4789.485-6725.022c5.919-2.306,8.673,6.369,9.7,10.643a75.483,75.483,0,0,1,1.782,13.9,163.16,163.16,0,0,1-1.6,31.655,129.2,129.2,0,0,1-2.858,13.9c-.1.377.423.493.565.156a55.423,55.423,0,0,0,3.12-12.74,159.67,159.67,0,0,0,1.7-16.344c.572-10.363.668-21.371-2.089-31.464-1.212-4.437-4.441-12.652-10.457-10.192-.3.122-.173.612.135.492Z" transform="translate(-4789.18 6725.964)"/></g><g transform="translate(107.135 160.772)"><path d="M4732.173-6643.879c14.922,3.812,30.551-.391,45.012-4.314q6.361-1.727,12.708-3.514a.32.32,0,0,0-.17-.616c-14.928,3.419-29.5,9.028-44.989,9.306a53.168,53.168,0,0,1-12.494-1.1c-.157-.036-.225.2-.067.242Z" transform="translate(-4732.083 6652.333)"/></g><g transform="translate(129.997 3.01)"><path d="M4761.885-6810.07a11.311,11.311,0,0,0-6.764,12.254c1.034,5.482,6.069,9.3,11.308,10.371a20.925,20.925,0,0,0,10.637-.632.262.262,0,0,0-.14-.5c-5.5,1.145-11.629,1.172-16.338-2.331-3.947-2.935-5.994-7.962-4.148-12.682a10.523,10.523,0,0,1,5.614-5.866c.368-.155.209-.766-.169-.61Z" transform="translate(-4754.945 6810.095)" fill="#b6b6b6"/><g transform="translate(9.229 5.383)"><path d="M4766.93-6804.659a7.582,7.582,0,0,0-1.545,9.986c2.185,3.462,6.425,5.2,10.393,5.319a12.691,12.691,0,0,0,7.158-1.674.224.224,0,0,0-.172-.407,23.152,23.152,0,0,1-5.835,1.244,14.617,14.617,0,0,1-5.778-.929c-3.273-1.258-6.326-4.155-6.335-7.873a6.9,6.9,0,0,1,2.434-5.345c.226-.191-.1-.5-.32-.321Z" transform="translate(-4764.174 6804.712)" fill="#b6b6b6"/></g><g transform="translate(38.477 11.965)"><path d="M4793.6-6797.659a3.239,3.239,0,0,1,2.329,4.569c-.176.308.212.558.462.357.9-.719,2.634-1.147,3.463-.075a1.649,1.649,0,0,1,.247,1.367,1.69,1.69,0,0,1-.328.682c-.172.213-.413.326-.6.522a.3.3,0,0,0,.213.514c.724.016,1.273-.807,1.449-1.423a2.348,2.348,0,0,0-.388-2.071c-1.08-1.36-3.339-1.018-4.475.068l.462.357a3.813,3.813,0,0,0-2.709-5.334c-.3-.054-.436.409-.128.467Z" transform="translate(-4793.421 6798.13)" fill="#b6b6b6"/></g></g><g transform="translate(113.119 148.479)"><path d="M4739.975-6664.272c.154,3.875.489,7.743.649,11.619.076,1.838.2,3.692.164,5.531-.04,2.051-.667,3.667-2.588,4.566-.247.116-.12.509.136.5a3.345,3.345,0,0,0,2.806-2.281c.791-1.9.469-4.171.4-6.164-.16-4.584-.3-9.216-.828-13.774-.053-.46-.758-.486-.738,0Z" transform="translate(-4738.067 6664.627)"/></g><g transform="translate(91.186 93.481)"><path d="M4722.791-6719.383a17.047,17.047,0,0,1-2.133,6.671,17.053,17.053,0,0,1-2,2.825c-.371.422-.765.824-1.171,1.212a12.368,12.368,0,0,0-1.294,1.211c-.13.168-.019.512.24.412a7.989,7.989,0,0,0,2.675-2.253,16.713,16.713,0,0,0,2.161-3.052,16.491,16.491,0,0,0,2.03-7.026c.018-.328-.471-.316-.5,0Z" transform="translate(-4716.134 6719.625)"/></g><g transform="translate(92.842 97.163)"><path d="M4729.375-6715.876a14.143,14.143,0,0,0-2.764,3.606c-.754,1.216-1.524,2.422-2.366,3.579a24.787,24.787,0,0,1-2.825,3.294,28.485,28.485,0,0,1-3.5,2.632c-.25.177-.11.628.221.525a10.049,10.049,0,0,0,3.488-2.229,21.382,21.382,0,0,0,2.874-3.23c.876-1.174,1.66-2.415,2.418-3.667a20.259,20.259,0,0,1,2.829-4.137c.246-.242-.116-.587-.373-.373Z" transform="translate(-4717.791 6715.943)"/></g><g transform="translate(104.746 161.314)"><path d="M4730.448-6651.6l-.036-.016.117.117a.22.22,0,0,1-.035-.063.429.429,0,0,0-.631-.12.427.427,0,0,0-.043.64,2.412,2.412,0,0,0,1.077.374c.339.071.684.122,1.028.17.366.05.732.093,1.1.124a7.5,7.5,0,0,0,1.082.054l-.465-.81c.02-.032.052-.028.011-.031-.022,0-.083.045-.1.055a.429.429,0,0,0-.085.662.693.693,0,0,0,.91.051.543.543,0,0,0-.271-1c-.332-.034-.671-.021-1-.04s-.694-.051-1.039-.09c-.313-.035-.623-.085-.935-.131a3,3,0,0,0-1.12-.1l.485.63-.016.025-.144.084a.44.44,0,0,1,.114-.026c.306-.049.239-.469,0-.554Z" transform="translate(-4729.694 6651.792)"/></g><g transform="translate(105.231 161.645)"><path d="M4731.31-6650.268l-.1-.264c-.118-.32-.622-.473-.8-.1a4.347,4.347,0,0,0-.213,1.619c-.027.573-.025,1.147-.006,1.72a6.349,6.349,0,0,0,.536,3.085.544.544,0,0,0,.846.109,2.044,2.044,0,0,0,.423-1.364c0-.545-.03-1.092-.062-1.636-.068-1.155-.18-2.306-.3-3.457l-1.016.138a24.581,24.581,0,0,1,.537,5.159.575.575,0,0,0,.97.4,2.912,2.912,0,0,0,.472-2.173l.018-2.638-1.092.147a10.277,10.277,0,0,1,.335,4.169c-.03.552.843.821,1.08.293a11.321,11.321,0,0,0,.665-4.979l-1.129.153a8.674,8.674,0,0,1,.121,3.184l1.168.321q.423-2.061,1.027-4.08h-1.131a6.508,6.508,0,0,1-.046,2.039.621.621,0,0,0,.422.744.612.612,0,0,0,.745-.423c.111-.53.207-1.068.295-1.6.084-.509-.093-1.108-.709-1.133-.444-.018-.744.35-1.18.332a1.829,1.829,0,0,1-.579-.106c-.136-.054-.219-.16-.2-.226a.509.509,0,0,0-.926-.39c-.521.745.133,1.538.868,1.751a2.959,2.959,0,0,0,1.134.108,1.709,1.709,0,0,0,.576-.166c.087-.044.241-.153.308-.148l-.291-.079-.056-.054-.079-.293a2.567,2.567,0,0,1-.135.766c-.066.307-.135.612-.192.92l1.167.321a8.976,8.976,0,0,0,.01-2.672c-.084-.612-.977-.5-1.131,0q-.621,2.011-1.064,4.071c-.163.759,1,1.084,1.168.321a9.632,9.632,0,0,0-.181-3.811c-.119-.64-1.146-.488-1.129.153a10.291,10.291,0,0,1-.516,4.394l1.08.292a11.608,11.608,0,0,0-.422-4.464.559.559,0,0,0-1.092.148l-.028,2.261q-.006.534-.013,1.068c0,.219.027.512-.141.678l.97.4a31.346,31.346,0,0,0-.675-5.434c-.116-.564-1.067-.447-1.016.137.089,1.024.183,2.047.247,3.073.032.512.056,1.026.069,1.539.007.289.1.834-.1,1.083l.846.109a2.789,2.789,0,0,1-.325-1.207q-.078-.761-.108-1.525c-.02-.51-.021-1.019-.014-1.529a5.544,5.544,0,0,0,0-1.515l-.732.426.232.186c.246.2.734.025.6-.348Z" transform="translate(-4730.18 6651.46)"/></g><g transform="translate(96.13 91.768)"><path d="M4721.935-6719.567c-.045-.04,0,0,0,.015a.214.214,0,0,1,.027.1c0-.035.018-.053-.008.041a.59.59,0,0,0,.013-.14.183.183,0,0,0,0-.04c-.015-.05-.023.089-.006.039a.362.362,0,0,0,.013-.053l.007-.026c.01-.031,0-.018-.021.042-.007-.019.047-.081.059-.1.032-.054-.058.059-.012.016.016-.015.03-.033.046-.048.065-.067.138-.127.207-.189l.494-.447.039-.034c.061-.056-.018.014-.027.02.066-.045-.023.008-.036.012a.347.347,0,0,1-.166,0c.043.008.04.038-.059-.026,0,0-.1-.089-.049-.036,0,0-.06-.1-.042-.056a.207.207,0,0,0,.03.053c-.055-.058-.035-.1-.021-.048.005.017.011.033.015.05s.008.035.012.052c.011.044-.014.058-.006-.056-.007.094.008.193.008.288,0,.206-.01.412-.03.616-.006.053-.012.106-.019.159-.008.076.015-.095,0-.02l-.009.059c-.008.048-.015.1-.025.144,0,.023-.043.161-.016.067s-.034.032.028-.047c.051-.064.023-.029.009-.015a.372.372,0,0,1,.449-.059.4.4,0,0,1,.131.132c-.027-.045.01-.021.024.066a.828.828,0,0,0-.025-.1c.041.133.011.111.012.066,0-.021,0-.042,0-.063,0-.053.008-.106.012-.159l.03-.369.059-.738a.539.539,0,0,0-.47-.533.537.537,0,0,0-.6.389l-.276,1.491,1-.131a2.154,2.154,0,0,1-.146-.238c-.024-.054-.02-.042.013.036-.009-.021-.017-.043-.025-.065-.015-.044-.028-.088-.04-.133l-.812.624a.785.785,0,0,0,.488.091.71.71,0,0,0,.509-.325.607.607,0,0,0,.1-.5.572.572,0,0,0-.285-.338.373.373,0,0,0-.493.129c.047-.053.056-.067.029-.041l.183-.107c-.016.006.135-.018.086-.009a.847.847,0,0,0-.251.068.706.706,0,0,0-.123.089c-.062.051.073-.047.093-.055.1-.042-.017-.007-.036.006-.039.024.123-.009.078-.009-.029,0-.015,0,.039.006a.268.268,0,0,1,.139.043.558.558,0,0,0-.614.043.558.558,0,0,0-.2.581,2.014,2.014,0,0,0,.315.66.559.559,0,0,0,.547.263.541.541,0,0,0,.457-.394l.261-1.495L4722-6720.4l-.061.881a1.687,1.687,0,0,0,.085.887.7.7,0,0,0,.989.293,1.122,1.122,0,0,0,.416-.931,6.029,6.029,0,0,0,.038-.834,1.7,1.7,0,0,0-.172-.852.729.729,0,0,0-.974-.3,1.505,1.505,0,0,0-.336.273l-.33.316a1.647,1.647,0,0,0-.562.8.741.741,0,0,0,.141.64.923.923,0,0,0,.367.225.342.342,0,0,0,.331-.568Z" transform="translate(-4721.078 6721.337)"/></g></g><g transform="translate(4382.433 -6803.026)"><path d="M4418.974-6693.292c-1.275-1.952-.631-3.615-1.868-5.6-.569-.914-6.331-1.776-7.28-2.315a6.856,6.856,0,0,0-2.823-.8,20.719,20.719,0,0,0-6.906.857c.183.589.357,1.18.5,1.781.277,1.128.328,1.121-.908,1.047q-8.481-.5-16.959-1.006a29.005,29.005,0,0,1,.31,3.941,21.05,21.05,0,0,0,.322,3.874,12.561,12.561,0,0,0,.662,2.143,1.146,1.146,0,0,0,.241.46,1.9,1.9,0,0,1,.353.371,4.978,4.978,0,0,1,.451,1,1.805,1.805,0,0,0,1.015,1.2c.843.244,1.639-.674,2.513-.594.255.024.5.132.748.169a2.934,2.934,0,0,0,.95-.077q.669-.123,1.345-.194a3.869,3.869,0,0,1,1.452.049,3.164,3.164,0,0,1,1.114.71,3.981,3.981,0,0,1,.333.3c.078.08.149.171.231.247a.374.374,0,0,0,.6-.071.859.859,0,0,0,.033-.464c-.064-.84.391-.951,1.092-.855.469.064.508.586.809.7.686.256.223-.8.628-.69.538.145,1.1.2,1.613.392.235.088.358.585.716.3.29-.227.091-.564-.021-.846-.124-.315-.346-.69.061-.9.482-.253.616.276.86.516.2.2.226.71.619.536.892-.394,1.273.2,1.734.731.256.292.584.826.978.381.766-.866,1.567-.465,2.4-.257.092-.212-.132-.461.1-.665a2.893,2.893,0,0,1,2.645.165c.141.145.306.391.453.386,1-.035,1.421.638,1.89,1.337.2.305.636.719,1.017.287s.886-.423,1.321-.632c.361-.174.876-.057,1.092-.455.477-.881.887-.541,1.243.059.334.561.652.682,1.071.108.172-.236.4-.484.656-.185.547.629.933.5,1.306.065C4418.251-6688.131,4420.472-6691,4418.974-6693.292Z" transform="translate(-4382.433 6804.413)"/><path d="M4509.4-6650.161c-.019-.847-.711-.586-1.153-.613q-8.832-.543-17.668-1.032a1.666,1.666,0,0,1-1.667-1.064c-.579-1.295-1.236-2.561-1.937-3.8-1.184-2.085-2.183-4.258-3.262-6.393-1.792-3.549-2.628-7.4-3.753-11.165a2.328,2.328,0,0,1-.062-.9,4.014,4.014,0,0,1-2.483.043,1.786,1.786,0,0,0-.913-.021c-1.9.379-3.813-.1-5.715.054-1.126.091-2.21-.3-3.328-.2a19.161,19.161,0,0,0,2.586,4.7,48.072,48.072,0,0,1,4.973,11.127c.615,1.893,1.327,3.757,1.8,5.7.277,1.128.327,1.121-.909,1.047q-12.03-.711-24.06-1.427c-6.439-.381-22.481-18.881-28.921-19.258.727,1.314,11.024,20.772,11.67,22.129,1.236,2.594,2.323,5.242,3.311,7.927l.007.014c.275.549.552.723,1.207.417.674-.314,1.319-.984,2.177-.629.807.334,1.564.819,2.488.368.081-.04.269.064.37.145a1.191,1.191,0,0,0,1.358.108c.677-.386,1.038-.118,1.406.394.136.19.31.383.6.237a3.255,3.255,0,0,1,3.255.5c.814.5,1.181.432,1.685-.311a1.054,1.054,0,0,0,1.546.568c.384-.145.792-.234,1.163-.405a.931.931,0,0,1,1.341.331c.468.822.855,1.706,1.973.72,1.091.455,1.761-.32,2.414-.905.543-.487.761-.307.95.211.4,1.09,1.711.976,2.345,1.772.143.179.6.067.69-.227.182-.582.855-.873.845-1.584a.717.717,0,0,1,.792-.655c.886-.008,1.639.924,2.611.377a.111.111,0,0,1,.093.029c.15.871,1.115.888,1.549,1.452.169.218.281.51.624.38.282-.107.237-.4.22-.624-.064-.84.391-.951,1.091-.855.469.064.508.586.809.7.686.256.224-.8.628-.69.538.145,1.1.2,1.613.392.236.088.358.585.717.3.289-.227.09-.564-.021-.846-.124-.315-.346-.69.061-.9.481-.253.616.276.859.516.2.2.227.71.62.537.893-.4,1.273.2,1.734.73.255.293.583.826.978.381.766-.866,1.567-.465,2.4-.257.092-.212-.133-.461.1-.664a2.893,2.893,0,0,1,2.646.164c.14.145.305.391.451.386,1-.034,1.422.638,1.89,1.337.2.3.636.719,1.017.287s.886-.423,1.322-.632c.361-.174.876-.057,1.091-.455.478-.881.888-.541,1.244.059.333.561.652.683,1.07.108.173-.236.4-.484.657-.185.653.752,1.077.424,1.522-.213a.938.938,0,0,1,.6-.351,7.69,7.69,0,0,0,4.264-2.229c.3-.259.721-.667,1.059-.521,1.419.613,1.648-.613,2.032-1.327a.973.973,0,0,1,1.088-.641,2.8,2.8,0,0,0,1.472-.318,2.028,2.028,0,0,0,1.276-1.615.968.968,0,0,1,.706-.775C4509.578-6648.542,4509.421-6649.4,4509.4-6650.161Z" transform="translate(-4382.433 6804.413)"/><path d="M4463.961-6647.711c.414-.118,3.037,1.765,6.275,4.267a63.808,63.808,0,0,0,18.334-8.754,16.434,16.434,0,0,0-.672-4c-2.886-10.016-20.542-47.534-27.5-58.4q-.627-.978-1.22-1.977a54.5,54.5,0,0,1-3.119-6.036c-.2-.447-.351-.928-.586-1.355s-.47-.651-.157-1.127c.522-.8-10.406-14.266-9.691-13.74,2.477,1.818,13.1,8.809,18,9.111,2.134.131,1.3-4.235,1.379-5.452.11-1.632,1.556-6.379,1.288-7.993-.649-3.9-.889-10.944-3.56-16.84a28.5,28.5,0,0,1-1.551-6.937c0-.368-.618,1.548-.618,1.548s11.75,1.812,5.917-4.187c-1.489-1.531-6.231-8.432-7.9-9.76-.467-.373-.479-1.144-.6-1.686a10.087,10.087,0,0,0,5.129-5.965,20.127,20.127,0,0,0,.821-7.99,9.089,9.089,0,0,0-.823-3.673c-1.036-1.968-3.231-3.041-5.381-3.612a34.733,34.733,0,0,0-8.418-.9,15.769,15.769,0,0,0-5.292.552c-3.086,1.042-5.3,3.791-8.256,5.162-4.121,1.912-9.015.887-13.4,2.071a13.854,13.854,0,0,0-9.5,9.313,27.189,27.189,0,0,0-.811,6.236l-.233,4.483a5.037,5.037,0,0,0,.169,2.023,5.206,5.206,0,0,0,1.42,1.826c3.85,3.688,7.437,7.875,9.169,12.917,1.6,4.655,1.507,9.725.889,14.607a4.447,4.447,0,0,0,.127,2.454,14.345,14.345,0,0,0,1.01,1.5c.643,1.01,1.2,2.078,1.822,3.1,1.416,2.334,2.907,4.622,4.388,6.916,1.572,2.434,3.143,4.869,4.639,7.351a67.752,67.752,0,0,1,3.7,6.812c.187.411.367.824.536,1.242,3.565,8.828,2.886,38.2,4.583,41.253S4462.773-6647.372,4463.961-6647.711Z" transform="translate(-4382.433 6804.413)" fill="#fff"/><path d="M4479.919-6681.494l.489.892c-.194-.464-.383-.93-.586-1.387a7.313,7.313,0,0,0-1.848-2.851.43.43,0,0,1-.147-.358,170.353,170.353,0,0,0-14.375-27.532c-6.4-9.783-8.762-14.236-9.593-15.992a11.733,11.733,0,0,1-4.57-2.609c-.046-.043-.09-.091-.135-.135-2.439-.836-6.243-2.023-12.185-3.673-15.279-4.244-16.807-4.414-16.807-4.414-.509.34-10.016,10.356-10.016,10.356s-7.3,6.451-19.862,15.448-6.281,23.427-6.281,23.427,18.923-1.054,33.961-.653l-.01,0c-2.037,1.357,4.585,16.1,4.585,16.1s.043.313.125.89c2.27,4.594,4.344,9.3,7.14,13.609a29.92,29.92,0,0,0,10.678,10.173,42.922,42.922,0,0,0,14.334,4.721c9.174,1.361,18.84,2.463,28.147,1.427,1.135-1.143,3.18-5.784,4.256-5.016,1.188.849,1.018,3.565,2.376-2.716S4479.919-6681.494,4479.919-6681.494Zm-38.324-4.965c-4.372-1.571-17.636-4.343-20.471-4.8,3.821.325,8.29-.509,16.014,1.358C4443.3-6688.409,4441.306-6686.592,4441.6-6686.459Zm28.817,13.793c-3.565-5.772-6.79-12.223-6.281-9s7.639,15.787,8.318,17.825-1.528,4.243-4.753-.849a131.449,131.449,0,0,1-7.117-14.247c1.719,4.041,6.88,16.856,2.873,16.284-4.753-.679-4.924-11.374-11.2-18.335-1.622-1.8-4.562-3.421-8.059-4.82l4.946-19.569s4.926,1.879,6.9,3.622c.99.873-.566,1.924-.226,2.263a37.073,37.073,0,0,0,7.809,4.923c3.735,1.867,6.62,3.9,6.62,4.414s-3.813,2.708-3.813,2.708,5,9.685,6.02,13.08S4473.978-6666.894,4470.412-6672.666Z" transform="translate(-4382.433 6804.413)"/><path d="M4556.766-6654.034c-3.486.028-6.971.174-10.455.3-7.741.291-15.48.62-23.222.9-4.334.154-8.678.088-13,.465a.772.772,0,0,1-.63.413c-2.387.2-4.768.5-7.164.557-1.528.034-3.245-.368-4.384.892a7.725,7.725,0,0,0-1.562,3.258,12.184,12.184,0,0,0-.386,3.289c3.087-1.316,6.062-2.571,7.268-2.182a18.738,18.738,0,0,0,10.471.429c3.573-.879,7-2.259,10.576-3.137a1.93,1.93,0,0,1,2.359,1.482,9,9,0,0,1,3.279-.038.239.239,0,0,1,.2.012,15.594,15.594,0,0,1,4.929-.225l1.13-.009a12.307,12.307,0,0,1,4.346-.229,29.109,29.109,0,0,1,3.669-.02,61.6,61.6,0,0,1,8.364-.442c.939-.019,1.888-.249,2.833-.186.338-1.229.72-2.447,1.132-3.665.212-.626.429-1.255.64-1.887C4557.029-6654.045,4556.9-6654.035,4556.766-6654.034Z" transform="translate(-4382.433 6804.413)"/><path d="M4535.04-6647.619a15.594,15.594,0,0,0-4.929.225A8.613,8.613,0,0,0,4535.04-6647.619Z" transform="translate(-4382.433 6804.413)"/><path d="M4540.516-6647.857a12.308,12.308,0,0,0-4.346.229A6.915,6.915,0,0,0,4540.516-6647.857Z" transform="translate(-4382.433 6804.413)"/><path d="M4529.915-6647.406a8.489,8.489,0,0,0-3.786.151A5.393,5.393,0,0,0,4529.915-6647.406Z" transform="translate(-4382.433 6804.413)"/><path d="M4525.373-6647.234a.573.573,0,0,0-.757.029A.432.432,0,0,0,4525.373-6647.234Z" transform="translate(-4382.433 6804.413)"/><path d="M4558.073-6645.938c.008-.048,1.215-5.23,1.388-5.889,2.658-10.148,16.833-60.036,16.833-60.036l-7.469-1.726-16.128,63.633-37.687-1.528-3.339,6.451" transform="translate(-4382.433 6804.413)"/><g transform="translate(112.425 157.4)"><path d="M4494.858-6641.2l1.358-5.47,62.741-.339.015,5.093Z" transform="translate(-4494.858 6647.013)"/></g><g transform="translate(66.85 68.598)"><path d="M4449.332-6735.713a.051.051,0,0,0,0-.1.051.051,0,0,0,0,.1Z" transform="translate(-4449.283 6735.815)"/></g><path d="M4445.521-6731.98a2.842,2.842,0,0,0-1.735-1.353c-.73-.326-1.667-.446-2.17-.976-1.575-1.653-3.8-2.192-5.614-3.42s-4.22-1.107-6.1-2.435c-1.572-1.109-3.657-1.106-5.512-1.6-.92-.243-1.742-.9-2.819-.627-.861.217.509-.7,1.286-1.607-.281-.192-.55-.4-.811-.61a3.17,3.17,0,0,1-.084.586c-.241.926-4.109,2.774-4.971,3.148-.013.367-.063.751-.046,1.089,0,.124.017.247.029.371,0-.016.019.048.051.214a.846.846,0,0,1,.043.19c.019.026.044.064.086.134-.079-.131.257.237.327.289a6.594,6.594,0,0,0,.729.442c1.913,1.078,3.864,2.068,5.777,3.138.785.336,1.581.648,2.39.927q1.644.3,3.293.581a1.66,1.66,0,0,1,1.191.929c3.993,1.362,7.956,2.8,11.857,4.412a27.034,27.034,0,0,0,6.278,2.256c-.666-1.725-.771-3.636-1.729-5.266C4446.628-6731.33,4445.831-6731.273,4445.521-6731.98Z" transform="translate(-4382.433 6804.413)"/><g transform="translate(69.668 75.238)"><path d="M4478.632-6684.579c-1.523-6.919-5.1-13.145-8.867-19.068-3.825-6.009-8.059-11.743-11.916-17.73-1.6-2.489-3.305-5.041-4.755-7.677-.27-.033-.538-.072-.805-.121-.062.023-.126.042-.188.063a76.568,76.568,0,0,0,3.542,7.108c1.774,3.045,3.674,6.011,5.624,8.947,3.881,5.845,7.929,11.607,11.236,17.807,1.9,3.57,3.6,7.206,5.147,10.942A.51.51,0,0,0,4478.632-6684.579Z" transform="translate(-4452.101 6729.175)"/></g><g transform="translate(48.328 65.954)"><path d="M4453.678-6728.778a12.168,12.168,0,0,1-3.22-1.6c.054.144.1.282.146.4.731,2.1,1.53,4.583,3.928,5.244a.8.8,0,0,0,.775-1.33A7.575,7.575,0,0,1,4453.678-6728.778Z" transform="translate(-4430.76 6738.458)"/><path d="M4444.217-6735.989c-.921-.064-1.854-.079-2.764-.183a43.957,43.957,0,0,1-10.122-2.261.455.455,0,0,0-.349.829,37,37,0,0,0,9.153,3.249c2.274.435,4.64.383,6.839,1.141.174.06.407.119.656.179-.238-.261-.461-.537-.689-.807A9.327,9.327,0,0,1,4444.217-6735.989Z" transform="translate(-4430.76 6738.458)"/></g><g transform="translate(58.537 69.247)"><path d="M4442.741-6734.142a.652.652,0,0,0-1.2.413c.055.719,1.137,1.193,1.658,1.543q2.086,1.4,4.184,2.778l.992-1.7c-2.012-1.305-4.056-2.538-6.008-3.935l-.965,1.651c1.636.83,3.229,1.752,4.785,2.723.779.485,1.556.975,2.324,1.476a10.618,10.618,0,0,0,2.4,1.387c.614.2,1.3-.6.889-1.157a4.775,4.775,0,0,0-1.038-1.028c-.368-.276-.743-.541-1.121-.8-.78-.539-1.57-1.059-2.381-1.55-1.6-.966-3.237-1.849-4.9-2.7a.957.957,0,0,0-.965,1.651,54.511,54.511,0,0,0,5.981,3.98c1.109.61,2.1-1.078.992-1.7-.981-.55-1.96-1.1-2.946-1.645l-1.438-.791-.72-.4c-.106-.058-.21-.124-.319-.176a2.646,2.646,0,0,1-.371-.137l.18.435v-.058l-.172.416.038-.043-.4.164.045.006a.544.544,0,0,0,.467-.814Z" transform="translate(-4440.969 6735.166)"/></g><g transform="translate(36.526 58.958)"><path d="M4447.265-6733.444c-.115-.13-.219-.269-.33-.4a9.477,9.477,0,0,1-2.587-2,13.409,13.409,0,0,0,.093,3.025c.23,1.571.679,3.847,2,4.882.728.572,2.162.306,2.065-.856-.12-1.427-.931-2.735-1.179-4.163C4447.294-6733.118,4447.285-6733.281,4447.265-6733.444Z" transform="translate(-4418.958 6745.454)"/><path d="M4443.148-6737.829a1.168,1.168,0,0,1,.372-1.249c-.112-.241-.241-.475-.342-.719q-5.039-.933-10.019-2.144c-2.2-.536-4.384-1.138-6.57-1.735a58.938,58.938,0,0,0-6.45-1.71c-.783-.383-1.749.957-.762,1.515a34.767,34.767,0,0,0,6.116,2.347c2.225.74,4.488,1.38,6.75,1.994,3.754,1.02,7.542,1.89,11.357,2.644A6.081,6.081,0,0,1,4443.148-6737.829Z" transform="translate(-4418.958 6745.454)"/></g><g transform="translate(36.038 58.699)"><path d="M4445.295-6735.845a10.022,10.022,0,0,1-2.47-1.963,5.369,5.369,0,0,0-2.269-1.862c-2.071-.66-4.429-.66-6.558-1.125a50.272,50.272,0,0,1-13.013-4.724l-1.679,2.872a108.442,108.442,0,0,0,10.818,4.723q2.721,1.014,5.5,1.872c1.645.508,4.032,1.656,5.734,1.141a1.423,1.423,0,0,0,.621-2.354c-1.172-1.2-3.458-1.381-5.026-1.858q-2.778-.846-5.5-1.847a100.48,100.48,0,0,1-10.459-4.549c-1.9-.955-3.579,1.857-1.679,2.872a47.27,47.27,0,0,0,13.4,4.863c1.165.221,2.338.4,3.514.541s2.378.078,3.548.216c1.006.118,1.8,1.085,2.724,1.489a7.811,7.811,0,0,0,2.559.6.489.489,0,0,0,.245-.9Z" transform="translate(-4418.47 6745.714)"/></g><g transform="translate(60.582 66.147)"><path d="M4443.275-6737.468c-.031.084-.059.169-.082.256a2.036,2.036,0,0,1-.062.259l.078-.185a1.74,1.74,0,0,0-.19.792,1.269,1.269,0,0,0,.06.5,1.263,1.263,0,0,0,.536.7,1.1,1.1,0,0,0,1.151-.028,2.589,2.589,0,0,0,.79-.863,3.662,3.662,0,0,0,.34-.925l-1.984-.547a18.83,18.83,0,0,0-.246,2.015l.044.329.125.295.193.251a.938.938,0,0,0,.4.256.613.613,0,0,0,.312.084.617.617,0,0,0,.329,0,.613.613,0,0,0,.312-.084.935.935,0,0,0,.4-.256,1.956,1.956,0,0,0,.328-.4.518.518,0,0,0,.057-.1,2.7,2.7,0,0,0,.155-.387,2.22,2.22,0,0,0,.041-.257,1.854,1.854,0,0,0,.029-.272,2.868,2.868,0,0,0-.05-.413.748.748,0,0,0-.027-.127,1.259,1.259,0,0,0-.325-.558.95.95,0,0,0-.406-.261.961.961,0,0,0-.487-.109,1.263,1.263,0,0,0-.637.173,1.766,1.766,0,0,0-.31.21.807.807,0,0,0-.246.245c-.04.052-.083.1-.121.158a.941.941,0,0,0-.06.1,2.375,2.375,0,0,0-.27.965l.04.3a.855.855,0,0,0,.2.385,1.084,1.084,0,0,0,.589.406,1.338,1.338,0,0,0,.6,0,1.16,1.16,0,0,0,.677-.521c.019-.03.038-.058.059-.087l-.181.235a1.068,1.068,0,0,1,.184-.183l-.247.191a1.162,1.162,0,0,1,.107-.071,2.852,2.852,0,0,0,.345-.254l-.256.2a1.055,1.055,0,0,1,.158-.1l-1.855-.755a.666.666,0,0,1,.03.127l-.045-.336a.754.754,0,0,1,0,.182l.045-.334a.892.892,0,0,1-.053.2l.127-.3c-.051.115-.1.231-.147.348l.126-.3a.791.791,0,0,1-.092.156l.194-.251a.38.38,0,0,1-.034.04l2.113.875a19.21,19.21,0,0,0-.245-2.015.772.772,0,0,0-.184-.35.779.779,0,0,0-.289-.265l-.246-.1a.784.784,0,0,0-.41-.018.978.978,0,0,0-.59.283.988.988,0,0,0-.3.727.805.805,0,0,1,0,.225l.036-.266a1.887,1.887,0,0,1-.119.436l.1-.234a1.873,1.873,0,0,1-.241.415l.15-.194a1.288,1.288,0,0,1-.192.2l.191-.147a.447.447,0,0,1-.07.04l.225-.1a.52.52,0,0,1-.065.015l.248-.033a.166.166,0,0,1-.038,0l.247.034a.233.233,0,0,1-.054-.014l.22.093a.437.437,0,0,1-.051-.029l.185.143a.479.479,0,0,1-.074-.074l.14.181a.722.722,0,0,1-.077-.137l.088.207a1.438,1.438,0,0,1-.073-.331l.029.217c-.009-.069-.016-.138-.025-.207a1.133,1.133,0,0,0-.113-.351l.078.185-.006-.031.028.2c0-.078.01-.155.02-.232l-.026.2a2.611,2.611,0,0,1,.05-.265.774.774,0,0,0-.074-.564.741.741,0,0,0-.438-.336.738.738,0,0,0-.564.073.827.827,0,0,0-.336.438Z" transform="translate(-4443.015 6738.265)"/></g><g transform="translate(21.871 92.22)"><path d="M4404.657-6711.458a178.6,178.6,0,0,1,32.373,5.275,76.618,76.618,0,0,1,13.882,4.944,16.719,16.719,0,0,1,5.062,3.542c1.064,1.152,2.063,2.366,3.054,3.58q2.337,2.868,4.542,5.84,1.088,1.47,2.13,2.972a27.108,27.108,0,0,0,2.017,2.771c.364.408,1.165-.021.953-.554a25.339,25.339,0,0,0-3.439-5.339q-2.035-2.763-4.191-5.436c-2.242-2.791-4.426-5.712-7.553-7.564a44.286,44.286,0,0,0-7-3.177c-2.345-.882-4.733-1.645-7.144-2.324a136.138,136.138,0,0,0-16.022-3.431,168.684,168.684,0,0,0-18.66-1.833c-.476-.021-.466.7,0,.734Z" transform="translate(-4404.304 6712.192)" fill="#fff"/></g><g transform="translate(66.739 117.163)"><path d="M4449.25-6683.363a54.371,54.371,0,0,1,7.5,10.081c1.731,2.914,2.424,6.335,4.212,9.216.592.955,1.462,2.039,2.7,2.036.962,0,1.184-.974,1.2-1.759a15.063,15.063,0,0,0-.444-3.377c-.312-1.5-.694-2.983-1.11-4.458q-1.257-4.463-2.717-8.868l-.74.2c1.291,3.336,2.462,6.731,3.9,10.006a36.018,36.018,0,0,0,2.578,4.8,11.549,11.549,0,0,0,2.821,3.3,5.068,5.068,0,0,0,3.673.859.515.515,0,0,0,.5-.5,10.757,10.757,0,0,0-1.375-4.644c-.5-1.066-.91-2.17-1.413-3.235-1.289-2.733-2.662-5.425-3.933-8.166-.688-1.483-1.36-2.977-1.915-4.516l-.914.386c1.2,2.092,2.644,4.051,4.034,6.016,1.694,2.4,3.416,4.773,5.071,7.2.67.981,1.34,1.968,1.93,3a.505.505,0,0,0,.913-.119,6.562,6.562,0,0,0-.235-3.216,34.878,34.878,0,0,0-1.6-4.7,68.749,68.749,0,0,0-4.882-9.878,25.313,25.313,0,0,0-2.461-3.446c-.264-.305-.7.139-.442.442a18.461,18.461,0,0,1,1.863,2.975c.827,1.455,1.588,2.945,2.34,4.439a56.242,56.242,0,0,1,4.011,9.676,6.947,6.947,0,0,1,.437,3.437l.914-.12c-1.2-2.092-2.644-4.051-4.034-6.017-1.694-2.4-3.416-4.772-5.071-7.195-.67-.981-1.34-1.968-1.93-3-.273-.479-1.11-.16-.913.385a83.888,83.888,0,0,0,3.586,8.052c1.1,2.264,2.3,4.509,3.225,6.85.712,1.8,1.777,3.4,1.783,5.393l.5-.5a4.242,4.242,0,0,1-2.974-.584,9.877,9.877,0,0,1-2.662-3.065,53.493,53.493,0,0,1-4.631-9.374c-.666-1.708-1.305-3.427-1.968-5.136-.175-.451-.9-.273-.74.2.785,2.37,1.54,4.763,2.166,7.18a46.594,46.594,0,0,1,1.641,8.1,7.719,7.719,0,0,1,.011,1.331,2.181,2.181,0,0,1-.069.368l-.023.09c-.026.1-.112.083-.019.052-.039.013.309-.006.142-.067a1.65,1.65,0,0,0-.213-.013,1.309,1.309,0,0,1-.54-.264,4.6,4.6,0,0,1-1.059-1.319c-1.644-2.737-2.379-5.927-4.02-8.668a44.548,44.548,0,0,0-3.977-5.77,61.267,61.267,0,0,0-4.259-4.479.274.274,0,0,0-.387.387Z" transform="translate(-4449.171 6687.25)"/></g><g transform="translate(73.408 105.244)"><path d="M4456-6698.606a35.941,35.941,0,0,1,3.9,1.874c1.206.713,2.363,1.5,3.542,2.253q1.056.678,2.153,1.286c.852.474,1.808.83,2.627,1.35.525.334.951.844,1.441,1.23.29.228.509.381.157.665a5.443,5.443,0,0,1-.849.537,3.611,3.611,0,0,1-2.057.477,3.254,3.254,0,0,1-1.291-.44c-.471-.275-.868-.7-1.444-.673a.526.526,0,0,0-.52.519c.045,1.05,1.426,1.694,2.318,1.937a4.436,4.436,0,0,0,2.626-.122c1.338-.478,3.786-1.919,2.337-3.551a8.194,8.194,0,0,0-.83-.684c-.328-.284-.645-.582-.992-.843a18.919,18.919,0,0,0-2.813-1.414c-1.656-.844-3.256-1.789-4.853-2.739a16.974,16.974,0,0,0-5.218-2.219c-.315-.063-.571.408-.235.557Z" transform="translate(-4455.841 6699.169)"/></g><g transform="translate(74.028 24.99)"><path d="M4458.788-6763.123c1.6-.349,10.375.9,8.595-2.762a29.259,29.259,0,0,0-2.981-4.449c-1.4-1.894-2.858-3.751-4.333-5.59q-.957-1.193-1.93-2.372a5.335,5.335,0,0,0-.7-.805,1.788,1.788,0,0,0-.31-.185l-.1-.049c-.025-.013-.051-.023-.076-.035-.218-.1-.006-.031.07.051-.294-.315-.766.158-.472.472-.055-.058-.129-.312-.063-.088.008.027.022.052.03.078a1.216,1.216,0,0,0,.1.251,3.3,3.3,0,0,0,.522.722q.75.892,1.483,1.8,2.038,2.5,4.011,5.063c1.182,1.536,2.36,3.085,3.407,4.717a4.967,4.967,0,0,1,.705,1.311c0-.012.029-.025-.011.049a.739.739,0,0,1-.209.26,2.719,2.719,0,0,1-1.129.412,21.1,21.1,0,0,1-3.755.285,10.812,10.812,0,0,0-3.016.279.3.3,0,0,0,.162.587Z" transform="translate(-4456.461 6779.423)"/></g><g transform="translate(66.812 27.826)"><path d="M4450.683-6775.621a.5.5,0,0,0-.192-.374.869.869,0,0,0-.451-.173.478.478,0,0,0-.5.25,1.858,1.858,0,0,0-.151.423,2.556,2.556,0,0,0,.222,1.68,1.416,1.416,0,0,0,.534.658,1.01,1.01,0,0,0,.827.077,1.366,1.366,0,0,0,.838-1.208,2.705,2.705,0,0,0-.113-1.232,1.566,1.566,0,0,0-1.292-1.066.982.982,0,0,0-.8.4,1.78,1.78,0,0,0-.3.694,1.556,1.556,0,0,0,.048,1,1.263,1.263,0,0,0,.564.606,1.269,1.269,0,0,0,1.727-.3.926.926,0,0,0-.907-1.327.624.624,0,0,0-.406.169.582.582,0,0,0-.169.406.581.581,0,0,0,.575.574.666.666,0,0,0,.088,0l-.1-.014.05.012c-.106,0-.116-.062-.05-.016-.145-.1-.079-.067-.046-.029-.116-.133-.063-.089-.04-.043-.081-.162-.039-.107-.028-.055-.039-.186-.01-.122-.014-.068.02-.116.023-.146.011-.089-.012.037-.008.028.014-.028.044-.108-.061.041.071-.109-.036.041-.094.06.042-.026-.087.055.149-.038.029-.01a.466.466,0,0,0-.1.025l.083-.011-.071,0a.455.455,0,0,0-.1-.006l.081.01-.069-.014c-.04-.011-.079-.025-.118-.038-.073-.023.125.069.025.008-.028-.017-.058-.034-.087-.05-.1-.057.09.09.012.009a.51.51,0,0,0-.065-.065l.052.068a.553.553,0,0,1-.03-.048c-.077-.122.034.1-.009-.028s-.009.112,0-.019a.711.711,0,0,1,.007-.171c0,.015-.025.123,0,.019.01-.043.019-.086.029-.129.019-.074.042-.147.063-.221.03-.1-.066.12-.011.027a.407.407,0,0,0,.044-.076l-.051.063c.013-.015.026-.03.04-.044.042-.038.028-.028-.041.029.049-.028.033-.023-.049.014,0,0,.06-.015.062-.018l-.078.011c.058,0,.048,0-.03-.012l.038.009c.056.019.049.014-.024-.015.015,0,.082.045.1.053l.033.021c.048.035.042.029-.017-.016a.314.314,0,0,1,.081.072c.026.025.048.051.073.076.036.044.03.035-.02-.028l.037.055c.015.023.058.134.079.144l-.028-.067c.008.02.016.04.023.06s.02.062.029.093a1.065,1.065,0,0,0,.04.19l-.01-.075c0,.022,0,.044.007.065,0,.044.007.088.009.131,0,.12,0,.24-.006.36l-.006.1c-.006.079-.037.063,0-.026a.642.642,0,0,0-.019.083l-.018.056c-.02.05-.014.037.017-.041a.73.73,0,0,0-.075.133c-.054.091.083-.081,0-.009-.011.011-.06.049-.064.063l.057-.044a.452.452,0,0,1-.05.031c-.081.058.112-.024.015,0s0-.013.018,0a.44.44,0,0,1-.062,0c.082.013.095.013.039,0-.1-.027.075.059-.014-.008.1.077.018.011,0-.01-.079-.078.051.092,0,0-.026-.048-.057-.093-.084-.141s-.041-.076-.06-.116c-.012-.025-.024-.051-.036-.078.023.055.024.055,0,0-.031-.093-.063-.185-.086-.281l-.018-.082c0-.027-.01-.054-.014-.081.008.064.008.067,0,.009a2.463,2.463,0,0,1-.01-.288c0-.095,0-.191.012-.287,0-.015.022-.147,0-.041.01-.055.022-.11.03-.166l-.2.263c.094-.052-.083.03.021-.006-.069.024-.009,0,.027,0-.061,0-.009,0,.025.006l.091.012c-.046-.008-.053-.007-.019,0a.3.3,0,0,0,.376-.286Z" transform="translate(-4449.245 6776.586)"/></g><g transform="translate(69.197 44.868)"><path d="M4451.67-6759a5.772,5.772,0,0,0,2.771,2.514,7.189,7.189,0,0,0,1.812.562,7.237,7.237,0,0,0,.957.1,3.5,3.5,0,0,0,1.063-.041.6.6,0,0,0-.159-1.174c-.288-.009-.567.094-.859.1a5.706,5.706,0,0,1-.812-.042,5.9,5.9,0,0,1-1.564-.427,7.46,7.46,0,0,1-2.657-2.012c-.269-.314-.732.086-.552.426Z" transform="translate(-4451.629 6759.545)"/></g><g transform="translate(96.581 122.538)"><path d="M4479.031-6681.535a44,44,0,0,1,1.766,4.99,37.761,37.761,0,0,1,.95,5.343c.219,1.742.481,3.476.829,5.2.363,1.8.873,3.549,1.312,5.328l1.122-.653a1.087,1.087,0,0,0-.711-.456.522.522,0,0,0-.648.493,1.251,1.251,0,0,0,.41.913c.429.487,1.362-.027,1.122-.654a52.162,52.162,0,0,1-2.545-10.65,31.369,31.369,0,0,0-1.151-5.291c-.55-1.63-1.276-3.193-1.964-4.769-.121-.276-.608-.075-.492.208Z" transform="translate(-4479.013 6681.875)"/></g><g transform="translate(87.153 152.898)"><path d="M4485.942-6649.753a5.85,5.85,0,0,0-.01-.74.486.486,0,0,0-.606-.461,46.542,46.542,0,0,0-8.54,3.368c-2.521,1.279-5.382,2.693-7.1,5.021a.684.684,0,0,0,.588,1.024c1.592-.081,2.828-1.031,4.094-1.9q2.09-1.433,4.3-2.676a53.474,53.474,0,0,1,9.284-4.182l-.7-.905q-1.258,1.709-2.645,3.314c-.911,1.053-1.905,2.027-2.827,3.067a.692.692,0,0,0,.978.978,41.473,41.473,0,0,0,5.558-6.737.622.622,0,0,0-.7-.9,63.856,63.856,0,0,0-9.012,3.936q-2.178,1.18-4.248,2.547c-1.225.808-2.545,2.08-4.091,2.1l.481,1.162c1.731-2.176,4.331-3.553,6.752-4.83a59.391,59.391,0,0,1,8.069-3.462l-.589-.334a5.6,5.6,0,0,0,.175.717.4.4,0,0,0,.775-.1Z" transform="translate(-4469.586 6651.515)"/></g><g transform="translate(21.547 87.625)"><path d="M4404.775-6716.5l-.4-.138-.366.214c.205.369.729.5,1.1.657q.658.289,1.311.6c.923.433,1.821.915,2.7,1.435.853.507,1.683,1.049,2.484,1.634a10.39,10.39,0,0,0,2.437,1.623c.222.08.381-.191.287-.373a6.383,6.383,0,0,0-2.092-2,29.578,29.578,0,0,0-2.639-1.705,29.241,29.241,0,0,0-2.736-1.37c-.448-.2-.9-.382-1.362-.548-.4-.143-.94-.428-1.356-.264a.214.214,0,0,0,0,.409.935.935,0,0,0,.705.045.114.114,0,0,0-.061-.219Z" transform="translate(-4403.98 6716.788)" fill="#fff"/></g><g transform="translate(48.979 85.943)"><path d="M4433.555-6718.159a15.207,15.207,0,0,1-.662,4.759,39.536,39.536,0,0,1-1.452,4.609.513.513,0,0,0,.852.5c1-1.212,1.915-2.484,2.9-3.705a21.227,21.227,0,0,1,3.191-3.4l-.684-.181a8.579,8.579,0,0,1,.288,1.9,1.6,1.6,0,0,1-.149.953,5.291,5.291,0,0,1-1.384,1.028c-1.052.631-2.184,1.1-3.268,1.662-.36.188-.213.852.217.8a5.707,5.707,0,0,0,1.779-.617,18.7,18.7,0,0,0,2.142-1.2,3.9,3.9,0,0,0,1.39-1.295,2.546,2.546,0,0,0,.136-1.332,16.345,16.345,0,0,0-.361-2.114.412.412,0,0,0-.6-.245,21.687,21.687,0,0,0-3.3,3.339c-1.028,1.211-2.014,2.457-3.013,3.693l.852.5a31.71,31.71,0,0,0,1.376-4.777,15.727,15.727,0,0,0,.4-4.861c-.047-.406-.679-.423-.649,0Z" transform="translate(-4431.412 6718.47)" fill="#fff"/></g><g transform="translate(29.666 65.783)"><path d="M4412.97-6730.4c.054.1-.058.224.039-.01a1.417,1.417,0,0,1,.064-.142,5.662,5.662,0,0,1,.363-.5c.262-.369.528-.736.8-1.1q.8-1.059,1.669-2.057.845-.97,1.745-1.888c.312-.318.621-.654.961-.941a1.79,1.79,0,0,0,.705-1.1c.037-.219-.1-.521-.373-.49a1.876,1.876,0,0,0-1.265.738c-.348.392-.725.759-1.076,1.148q-1.056,1.169-2.024,2.412c-.643.825-1.265,1.665-1.852,2.531a3.12,3.12,0,0,0-.621,1.157.619.619,0,0,0,.577.741.337.337,0,0,0,.287-.5Z" transform="translate(-4412.098 6738.629)"/></g><g transform="translate(43.514 18.244)"><path d="M4435.29-6759.45a7.69,7.69,0,0,1-5.27-1.814,8.653,8.653,0,0,1-2.808-5.166,5.2,5.2,0,0,1,.182-3.46,4.226,4.226,0,0,1,2.286-1.917c.77-.307,1.9-.693,2.635-.1a3.483,3.483,0,0,1,.876,1.51,15.645,15.645,0,0,1,.785,3.216c.089.632,1.09.461,1.093-.148a15.011,15.011,0,0,1,2.588-7.935,11.986,11.986,0,0,1,3.945-3.927,4.646,4.646,0,0,1,1.117-.46c.065-.016.436-.079.234-.052a.757.757,0,0,1,.115-.009.566.566,0,0,0,.485-.845c-.839-1.207-2.247-3.788-.57-4.886.347-.227.137-.843-.295-.7-2.805.929-1.3,4.447-.1,6.153l.485-.846c-1.535.016-3.066,1.256-4.1,2.25a16.74,16.74,0,0,0-4.747,8.927,13.03,13.03,0,0,0-.267,2.33l1.093-.148a14.978,14.978,0,0,0-.909-3.528,4.085,4.085,0,0,0-1.226-1.837,3.405,3.405,0,0,0-3.063-.2,5.128,5.128,0,0,0-3.9,5.217,10.129,10.129,0,0,0,2.661,6.573,8.483,8.483,0,0,0,6.674,2.415c.384-.035.4-.627,0-.609Z" transform="translate(-4425.946 6786.168)"/></g><path d="M4524.247-6671.962c-5.654-1.379-19.59.043-19.59.043l.02-2.479-9.459,1.638,5.435,11.261s5.6,1.793,6.155,1.928c.5.121,2.784-1.786,3.281.277.947.641,1.139-2.916,2.177-2.431.916.428,1.873.756,2.791,1.177a3.493,3.493,0,0,1,1.637,1.331,3.773,3.773,0,0,1,.26,2.572.567.567,0,0,1-.7.476,3.112,3.112,0,0,0,.758,1.335,4.149,4.149,0,0,0,1.319.83,1.758,1.758,0,0,0,1.234.145.67.67,0,0,1,.978.376c.053.232.111.446.18.652.458-.3.9-.5,1.115-.284.491.49.889,4.109,1.7,4.282,2.542.541,4.255-4.729,5.735-10.8S4529.9-6670.583,4524.247-6671.962Z" transform="translate(-4382.433 6804.413)" fill="#fff"/><path d="M4473.847-6677.158a26.581,26.581,0,0,0,.569,2.974.427.427,0,0,1-.669.449l3.569,13.265,21.786,3.564-2.2-16.759-23.754-5.795A8,8,0,0,1,4473.847-6677.158Z" transform="translate(-4382.433 6804.413)"/><g transform="translate(134.154 155.837)"><path d="M4516.635-6648.475a.05.05,0,0,0,0-.1.05.05,0,0,0,0,.1Z" transform="translate(-4516.587 6648.575)"/></g><g transform="translate(89.708 127.314)"><path d="M4509.735-6658.145a5.78,5.78,0,0,1,.968-1.308,3.155,3.155,0,0,0-1.663-.907c-.5.059-.983-.171-1.487-.024a.381.381,0,0,1-.469-.319c-.068-.492-.4-.943-.238-1.468-.282-2.413-1.359-8.954-1.639-11.368-.052-.377-.1-.754-.155-1.131a27.91,27.91,0,0,0-6.409,1.177c.038.071.075.142.113.212a2.215,2.215,0,0,1,1.251-.119l.3-.011a5.242,5.242,0,0,1,2.277-.184l.336-.071c1.208-.309,1.285-.256,1.331.974.012.328-.009.656-.015.984l.057.344a.4.4,0,0,1,.019.524c.228,1.848,1.43,7.81,1.26,9.689.171,1.421.171,1.419-1.177,1.778-.551.147-1.108.282-1.649.464-.441.148-.7.045-.792-.426-.06-.322-.33-.594-.234-.953l-1.54-6.2a.633.633,0,0,1-.278-.682l-.331-1.018a1.116,1.116,0,0,1-.337-1.01q-.372-1.176-.746-2.352a.221.221,0,0,1-.107-.36q-.072-.255-.144-.508c-.28-.238-.121-.621-.3-.891-.392-.027-.312-.4-.443-.616q-.5.1-1,.194.182.648.393,1.287a2.106,2.106,0,0,1,.176.42c.112.373.247.739.375,1.107,1.294,3.372,2.286,10.691,3.366,14.123,1.163-.4,3.837-.788,4.976-1.256.471-.194,1.037-.3,1.332-.73.468-.678.975-.518,1.544-.222C4509.417-6659.11,4509.643-6658.692,4509.735-6658.145Z" transform="translate(-4472.14 6677.099)"/><g transform="translate(34.979 3.744)"><path d="M4507.623-6671.444c5.675-.912,11.773-1.659,17.355.131a7.26,7.26,0,0,1,3.687,2.438,10.79,10.79,0,0,1,.979,5.146,21.5,21.5,0,0,1-.833,4.583c-.406,1.483-1.239,3.838-1.479,5.354-.083.521.433-.185.583-.687.542-1.813,1.266-3.456,1.817-5.071a18.076,18.076,0,0,0,.978-5.2c.1-3.026-.969-5.779-3.85-7.079a23.407,23.407,0,0,0-9.152-1.526,30.6,30.6,0,0,0-10.362,1.407c-.421.147-.215.586.277.506Z" transform="translate(-4507.119 6673.354)"/></g><path d="M4472.319-6676.351a8.744,8.744,0,0,0,2.379.438c.851.12,1.7.255,2.543.41,1.728.318,3.45.672,5.156,1.094q2.5.62,4.961,1.41,1.228.4,2.442.835c.406.146.807.3,1.207.461a6.328,6.328,0,0,0,1.313.507.715.715,0,0,0,.548-1.3,11.028,11.028,0,0,0-2.486-.9q-1.274-.437-2.565-.826-2.526-.765-5.1-1.352c-1.716-.391-3.445-.73-5.187-.983q-1.23-.179-2.465-.33a8.027,8.027,0,0,0-2.66-.136.371.371,0,0,0-.087.671Z" transform="translate(-4472.14 6677.099)"/></g><g transform="translate(126.212 138.453)"><path d="M4508.765-6659.4c.658.252,1.058-.523,1.285-1.01.154-.33.271-.679.446-1,.249-.455.291-.289.733-.051a34.482,34.482,0,0,0,4.122,1.492,8.177,8.177,0,0,1,3.554,2.665.362.362,0,0,0,.509,0,4.363,4.363,0,0,0,.819-4.594,10.758,10.758,0,0,0-1.4-2.544c-.417-.594-.861-1.469-1.669-1.522-.29-.019-.355.377-.14.517a5.541,5.541,0,0,1,1.436,1.676,9.235,9.235,0,0,1,1.11,2.056,3.569,3.569,0,0,1-.663,3.9l.566.073a8.563,8.563,0,0,0-3.313-2.668c-1.487-.666-3.129-.9-4.59-1.634-.346-.172-.688-.457-1.087-.276a1.284,1.284,0,0,0-.554.674c-.235.5-.433,1.823-1.117,1.908a.171.171,0,0,0-.045.334Z" transform="translate(-4508.645 6665.959)"/></g><g transform="translate(137.165 138.286)"><path d="M4519.63-6665.948a12.756,12.756,0,0,1,1.689,1.528,7.676,7.676,0,0,1,1.179,2.147,11.713,11.713,0,0,1,.481,5.318c-.207,1.968-.838,3.888-.987,5.857-.1,1.384.566,2.811,2.136,2.788,1.753-.025,2.682-1.673,2.745-3.239a.226.226,0,0,0-.442-.06,3.251,3.251,0,0,1-1.714,2.45,1.456,1.456,0,0,1-1.984-1.471,15.864,15.864,0,0,1,.524-3.35c.2-1.065.382-2.135.476-3.215a11.3,11.3,0,0,0-.763-5.573c-.585-1.328-1.738-2.985-3.238-3.356-.1-.024-.185.1-.1.176Z" transform="translate(-4519.597 6666.127)"/></g><g transform="translate(133.682 145.515)"><path d="M4516.3-6658.564a1.084,1.084,0,0,0,.052.227,2.469,2.469,0,0,1,.047.383,4.817,4.817,0,0,1-.032.712,5.837,5.837,0,0,0-.053,1.458,2.177,2.177,0,0,0,1.529,1.789,2.013,2.013,0,0,0,1.266-.067,3.037,3.037,0,0,0,.561-.337c.051-.034.242-.188.314-.108,0,0-.05.266-.053.288-.109.845.365,1.9,1.359,1.838a.34.34,0,0,0,.09-.664c-.086-.029-.171-.045-.256-.076-.321-.118-.49.361-.224.532.075.048.145.111.219.162l.171-.63c-.528.012-.721-.509-.712-.962a1.6,1.6,0,0,0-.021-.778.641.641,0,0,0-.4-.322c-.495-.136-.8.267-1.194.46a1.4,1.4,0,0,1-1.421-.145c-.9-.665-.638-1.788-.617-2.745.008-.378.013-.978-.3-1.253-.217-.192-.573-.084-.5.238.022.095.148.078.177,0Z" transform="translate(-4516.114 6658.897)"/></g><g transform="translate(60.389 48.221)"><path d="M4442.846-6756.142a.025.025,0,0,0,0-.05.025.025,0,0,0,0,.05Z" transform="translate(-4442.822 6756.192)"/></g><g transform="translate(61.005 49.065)"><path d="M4443.442-6755.117a14.323,14.323,0,0,0,.377,1.549q.114.375.248.743a3.06,3.06,0,0,0,.333.726.145.145,0,0,0,.264-.111,4.815,4.815,0,0,0-.249-.74q-.133-.367-.248-.743a14.523,14.523,0,0,1-.371-1.522c-.044-.232-.4-.133-.354.1Z" transform="translate(-4443.438 6755.347)"/></g><g transform="translate(63.119 51.408)"><path d="M4445.556-6752.785a20.191,20.191,0,0,0,.541,2.043q.156.486.337.963a2.5,2.5,0,0,0,.44.925.139.139,0,0,0,.234-.1,2.883,2.883,0,0,0-.319-.926c-.127-.328-.245-.661-.354-1a20.677,20.677,0,0,1-.54-2c-.047-.222-.385-.128-.339.093Z" transform="translate(-4445.552 6753.005)"/></g><g transform="translate(63.598 47.32)"><path d="M4446.031-6756.944l.007.333c0,.111.014.222.024.333a.119.119,0,0,0,.117.117.119.119,0,0,0,.117-.117c.01-.111.021-.222.024-.333l.007-.333a.15.15,0,0,0-.148-.149.151.151,0,0,0-.148.149Z" transform="translate(-4446.031 6757.093)"/></g><g transform="translate(66.115 49.856)"><path d="M4448.553-6754.389a14.65,14.65,0,0,0,.085,2.033c.037.324.081.648.144.968a3.925,3.925,0,0,0,.266.968.163.163,0,0,0,.3-.082,7.057,7.057,0,0,0-.166-.92c-.062-.335-.121-.67-.165-1.008a14.428,14.428,0,0,1-.118-1.959.174.174,0,0,0-.348,0Z" transform="translate(-4448.548 6754.557)"/></g><g transform="translate(67.715 58.435)"><path d="M4450.15-6745.795l.161,1.112.079.546a3.176,3.176,0,0,0,.106.56.125.125,0,0,0,.245-.033,3.155,3.155,0,0,0-.059-.562l-.085-.567-.169-1.133a.146.146,0,0,0-.177-.1.147.147,0,0,0-.1.178Z" transform="translate(-4450.147 6745.978)"/></g><g transform="translate(64.041 59.297)"><path d="M4446.5-6744.948a14.88,14.88,0,0,0,.053,2.5c.042.4.1.789.176,1.18a4.3,4.3,0,0,0,.338,1.175.162.162,0,0,0,.3-.081,8.1,8.1,0,0,0-.215-1.117c-.083-.413-.154-.829-.2-1.247a14.984,14.984,0,0,1-.1-2.409c.009-.224-.334-.222-.347,0Z" transform="translate(-4446.473 6745.115)"/></g><g transform="translate(67.057 63.602)"><path d="M4449.535-6740.61a11.028,11.028,0,0,0-.021,1.737c.019.277.049.554.088.829a1.832,1.832,0,0,0,.248.836c.068.092.244.1.271-.035a2.265,2.265,0,0,0-.054-.8c-.047-.287-.084-.575-.108-.865a11.167,11.167,0,0,1-.006-1.705c.019-.27-.4-.266-.418,0Z" transform="translate(-4449.49 6740.811)"/></g><g transform="translate(71.438 59.65)"><path d="M4453.912-6744.611l-.024,1.869-.011.935a2.5,2.5,0,0,0,.07.9.126.126,0,0,0,.241,0,2.466,2.466,0,0,0,.071-.9l-.011-.935-.024-1.869a.156.156,0,0,0-.312,0Z" transform="translate(-4453.87 6744.762)"/></g><g transform="translate(70.574 53.846)"><path d="M4453.008-6750.39a15.518,15.518,0,0,0,.3,2.031.118.118,0,0,0,.231-.032,15.436,15.436,0,0,0-.17-2,.182.182,0,0,0-.178-.177.179.179,0,0,0-.178.177Z" transform="translate(-4453.007 6750.567)"/></g><g transform="translate(73.115 53.845)"><path d="M4455.553-6750.339a29.748,29.748,0,0,1,.526,3.218c.057.529.1,1.059.136,1.591a7.16,7.16,0,0,0,.13,1.522.181.181,0,0,0,.346,0,5.339,5.339,0,0,0,0-1.645c-.039-.511-.09-1.022-.158-1.53a29.576,29.576,0,0,0-.631-3.254c-.058-.23-.405-.132-.354.1Z" transform="translate(-4455.548 6750.568)"/></g><g transform="translate(75.869 53.259)"><path d="M4458.307-6750.888a15.063,15.063,0,0,1,.293,2.124q.034.531.031,1.062a4.587,4.587,0,0,0,.029,1.029.189.189,0,0,0,.361,0,3.287,3.287,0,0,0,.087-1.111q-.009-.531-.054-1.061a15.859,15.859,0,0,0-.337-2.156c-.061-.268-.466-.154-.41.113Z" transform="translate(-4458.302 6751.154)"/></g><g transform="translate(78.46 53.624)"><path d="M4460.9-6750.564a11.3,11.3,0,0,1,.195,1.5c.015.251.019.5.022.754a2.546,2.546,0,0,0,.062.726c.027.085.168.124.211.028a1.906,1.906,0,0,0,.112-.754c0-.261-.012-.523-.032-.783a11.962,11.962,0,0,0-.223-1.569c-.047-.227-.391-.131-.347.1Z" transform="translate(-4460.893 6750.789)"/></g><g transform="translate(80.015 48.504)"><path d="M4462.454-6755.675a13.5,13.5,0,0,1,.331,1.839c.032.3.053.6.068.907s.006.613.052.917a.166.166,0,0,0,.317,0,6.4,6.4,0,0,0-.05-1.893,14.051,14.051,0,0,0-.357-1.87.187.187,0,0,0-.361.1Z" transform="translate(-4462.448 6755.908)"/></g><g transform="translate(80.836 56.604)"><path d="M4463.524-6747.611a22.787,22.787,0,0,1-.024,2.511c-.028.417-.067.835-.118,1.25a8.643,8.643,0,0,0-.112,1.243.155.155,0,0,0,.3.041,8.476,8.476,0,0,0,.358-2.486,22.827,22.827,0,0,0,0-2.559c-.014-.262-.422-.265-.41,0Z" transform="translate(-4463.269 6747.809)"/></g><g transform="translate(78.327 60.206)"><path d="M4460.894-6744.009a12.181,12.181,0,0,1,.218,2.859,27.706,27.706,0,0,1-.351,2.849.115.115,0,0,0,.222.061,10.083,10.083,0,0,0,.216-5.853c-.045-.2-.344-.114-.305.084Z" transform="translate(-4460.76 6744.207)"/></g><g transform="translate(75.646 61.616)"><path d="M4458.188-6742.61a15.837,15.837,0,0,1,.028,2.008c-.034.666-.141,1.331-.138,2a.139.139,0,0,0,.272.037,6.755,6.755,0,0,0,.29-2,16.093,16.093,0,0,0-.061-2.047c-.023-.247-.41-.252-.391,0Z" transform="translate(-4458.078 6742.797)"/></g><g transform="translate(72.792 66.438)"><path d="M4455.39-6737.832c-.071,1.109-.176,2.222-.165,3.334,0,.112.187.147.2.028.151-1.113.188-2.241.258-3.362.011-.191-.285-.19-.3,0Z" transform="translate(-4455.224 6737.975)"/></g><g transform="translate(70.201 68.208)"><path d="M4452.813-6736.1a9.932,9.932,0,0,0-.172,2.2,5.656,5.656,0,0,0,.419,2.12.112.112,0,0,0,.207-.056c-.061-.691-.2-1.371-.242-2.064a10.334,10.334,0,0,1,.078-2.124c.027-.188-.255-.273-.29-.08Z" transform="translate(-4452.634 6736.205)"/></g><g transform="translate(76.74 68.978)"><path d="M4459.5-6735.353a3.119,3.119,0,0,0-.322,1.234,2.808,2.808,0,0,0,.037.627.87.87,0,0,0,.267.584.14.14,0,0,0,.2-.083,1.461,1.461,0,0,0-.073-.57,3.073,3.073,0,0,1-.052-.539,2.682,2.682,0,0,1,.225-1.086.171.171,0,0,0-.059-.227.168.168,0,0,0-.227.06Z" transform="translate(-4459.172 6735.435)"/></g><g transform="translate(79.669 68.159)"><path d="M4462.1-6736.055a6.715,6.715,0,0,0,.066,1,3.874,3.874,0,0,0,.23.974.215.215,0,0,0,.273.089.221.221,0,0,0,.126-.257c-.03-.151-.083-.3-.119-.449s-.067-.3-.092-.454a5.94,5.94,0,0,1-.074-.9.205.205,0,0,0-.41,0Z" transform="translate(-4462.102 6736.253)"/></g><g transform="translate(60.096 42.6)"><path d="M4442.529-6761.611a3.956,3.956,0,0,0,.415,1.957c.071.127.242.035.221-.094a10.451,10.451,0,0,1-.218-1.863.209.209,0,0,0-.418,0Z" transform="translate(-4442.529 6761.813)"/></g><g transform="translate(62.766 9.279)"><path d="M4446.974-6794.744a4.6,4.6,0,0,1,2.426,5.12,4.377,4.377,0,0,1-1.548,2.5,3.917,3.917,0,0,1-1.172.647,13.3,13.3,0,0,0-1.326.357.318.318,0,0,0,0,.546c.986.571,2.414-.242,3.167-.881a5.158,5.158,0,0,0,1.712-3.076,5.2,5.2,0,0,0-3.155-5.588c-.242-.085-.329.283-.1.377Z" transform="translate(-4445.199 6795.134)"/></g><g transform="translate(64.908 3.079)"><path d="M4447.541-6800.779a9.558,9.558,0,0,1,7.09,6.3,10.367,10.367,0,0,1-.46,7.616,5.645,5.645,0,0,1-1.062,1.578,8.45,8.45,0,0,1-1.406.972.493.493,0,0,0,.116.889c1.36.291,2.522-.858,3.192-1.918a10.577,10.577,0,0,0,1.4-4.463,10.233,10.233,0,0,0-3.419-9.093,10.617,10.617,0,0,0-5.381-2.438c-.312-.04-.388.5-.075.553Z" transform="translate(-4447.341 6801.334)"/></g><g transform="translate(69.775 0.034)"><path d="M4452.592-6803.546a10.644,10.644,0,0,1,5.011,1.025,7,7,0,0,1,3.018,4.251,22.751,22.751,0,0,1,.868,5.768,10.089,10.089,0,0,1-.912,5.329c-.729,1.374-1.927,2.9-3.523,3.278a.354.354,0,0,0,0,.678c1.8.408,3.2-.9,4.15-2.282a10.1,10.1,0,0,0,1.7-5.643,23.689,23.689,0,0,0-.832-6.777,9.317,9.317,0,0,0-3.2-5.182c-1.8-1.28-4.157-1.351-6.279-1.242a.4.4,0,0,0,0,.8Z" transform="translate(-4452.208 6804.378)"/></g><g transform="translate(38.649)"><path d="M4453.957-6804.412a39.332,39.332,0,0,0-12.3,1.977,20.97,20.97,0,0,0-5.333,2.436c-2.129,1.442-3.868,3.376-6.219,4.5a16.892,16.892,0,0,1-4.262,1.293c-1.478.265-3.035.268-4.48.679-.342.1-.4.694,0,.754a13.519,13.519,0,0,0,3.828-.148,20.345,20.345,0,0,0,3.884-.888,21.522,21.522,0,0,0,6.535-4.226c3.278-2.71,7.5-3.947,11.607-4.792a43.626,43.626,0,0,1,6.743-.978.3.3,0,0,0,0-.6Z" transform="translate(-4421.082 6804.413)"/></g><g transform="translate(28.588 7.154)"><path d="M4431.587-6796.721c-4.919-.671-10.245-1.262-14.517,1.825a15.28,15.28,0,0,0-6.015,11.5c-.326,5.315,1.737,10.27,4.49,14.7,1.4,2.246,2.92,4.414,4.23,6.714a33.734,33.734,0,0,1,2.588,5.751,28.408,28.408,0,0,1,1.561,6.937,9.933,9.933,0,0,1-1.139,6.078c-.192.312.264.68.515.4a7.692,7.692,0,0,0,1.653-4.717,20.245,20.245,0,0,0-.648-6.012,39.134,39.134,0,0,0-5.289-11.816c-2.793-4.366-5.731-8.636-6.6-13.858a15.428,15.428,0,0,1,3.522-13.145,11.862,11.862,0,0,1,6.637-3.625,29.437,29.437,0,0,1,8.891.2c.519.065.648-.85.125-.921Z" transform="translate(-4411.021 6797.258)"/></g><g transform="translate(30.082 7.494)"><path d="M4412.964-6795.71c1.581-1.015,3.474-.287,5,.465.413.2.82.418,1.235.618a2.791,2.791,0,0,0,1.131.42.644.644,0,0,0,.663-.664.581.581,0,0,0-.619-.487.409.409,0,0,0-.377.287.421.421,0,0,0,.108.412.335.335,0,0,0,.464,0l.032-.025-.259.107q.165.011-.17-.126l.043-.325c.058-.12.141-.025.048-.11a.916.916,0,0,0-.216-.083c-.177-.073-.351-.152-.525-.232-.356-.163-.708-.335-1.063-.5a11.408,11.408,0,0,0-2.062-.784,4.567,4.567,0,0,0-3.74.495c-.319.226-.027.751.312.533Z" transform="translate(-4412.515 6796.919)"/></g><g transform="translate(32.074 5.183)"><path d="M4414.758-6798.532a16.19,16.19,0,0,1,2.827,1.107q.669.338,1.3.738c.219.137.433.28.646.426.122.085.385.2.409.349v-.22c.038-.213.27-.157.344-.061a.29.29,0,0,0-.318-.129.379.379,0,0,0-.056.694.565.565,0,0,0,.763-.149c.5-.732-.789-1.339-1.263-1.617a16.976,16.976,0,0,0-4.466-1.823.355.355,0,0,0-.189.685Z" transform="translate(-4414.506 6799.229)"/></g><g transform="translate(36.289 4.335)"><path d="M4418.816-6799.518a9.134,9.134,0,0,1,1.628,2.344,8.951,8.951,0,0,1,.5,1.278c.072.236.134.474.2.711a1.526,1.526,0,0,0,.281.689.34.34,0,0,0,.562-.148,1.355,1.355,0,0,0-.038-.763,5.749,5.749,0,0,0-.215-.749,10,10,0,0,0-.62-1.409,9.786,9.786,0,0,0-1.833-2.417.328.328,0,0,0-.464.464Z" transform="translate(-4418.722 6800.077)"/></g><g transform="translate(79.219 7.216)"><path d="M4461.948-6796.836c1.073.492,1.445,1.774,1.7,2.835a20.062,20.062,0,0,1,.626,4.576,11.414,11.414,0,0,1-.645,4.012,8.837,8.837,0,0,1-.807,1.677c-.334.533-.8.971-1.134,1.5-.143.225.134.46.348.348a6.064,6.064,0,0,0,2.257-3.235,12.079,12.079,0,0,0,.661-4.654,18.456,18.456,0,0,0-.835-4.809,3.69,3.69,0,0,0-2.027-2.6c-.2-.072-.345.26-.147.35Z" transform="translate(-4461.651 6797.196)"/></g><g transform="translate(40.284 44.514)"><path d="M4423.912-6756.063a3.282,3.282,0,0,1-.279-1.789c.007-.047.028-.094.034-.14,0,.039-.04.009.013-.018l-.037.037a.184.184,0,0,1-.209.06l-.022,0c0-.011.041.046.052.058.061.067.118.138.175.208.2.246.394.5.592.746a8.97,8.97,0,0,0,.619.715,2.345,2.345,0,0,0,.852.644c.944.291,1.024-1.02,1.125-1.623q.106-.633.177-1.271c.023-.208.024-.418.027-.627a1.084,1.084,0,0,0-.1-.663.348.348,0,0,0-.54-.069.912.912,0,0,0-.2.547c-.029.183-.063.365-.092.547-.061.381-.1.765-.16,1.145s-.132.735-.216,1.1a.423.423,0,0,0-.026.1l-.007.023c.018-.062.071-.089.158-.081.188-.07.173-.043.08-.117-.134-.107-.26-.226-.383-.346-.466-.458-.852-.987-1.277-1.481-.247-.286-.561-.569-.971-.44a.951.951,0,0,0-.558.914,3,3,0,0,0,.677,2.208.316.316,0,0,0,.42.025.327.327,0,0,0,.083-.413Z" transform="translate(-4422.717 6759.899)"/></g><g transform="translate(78.875 39.959)"><path d="M4461.32-6764.017c.561,2.017,1.239,4,1.765,6.027.537,2.067,1,4.15,1.341,6.258a64,64,0,0,1,.786,12.612c-.086,2.4-.313,4.779-.46,7.17a.389.389,0,0,0,.76.1,45.932,45.932,0,0,0,.775-12.871,65.585,65.585,0,0,0-1.961-12.665,37.1,37.1,0,0,0-2.378-6.9c-.171-.355-.73-.1-.628.265Z" transform="translate(-4461.308 6764.453)"/></g><g transform="translate(60.974 59.435)"><path d="M4443.426-6744.631a20.771,20.771,0,0,0,5.652,8.4,20.655,20.655,0,0,0,4.246,2.962c1.578.822,3.253,1.432,4.878,2.152a21.147,21.147,0,0,1,2.6,1.338,11.083,11.083,0,0,1,1.3.934,2.057,2.057,0,0,0,1.08.643.347.347,0,0,0,.348-.348c-.1-.73-.851-1.179-1.41-1.583a15.471,15.471,0,0,0-2.254-1.325c-1.571-.769-3.22-1.356-4.815-2.069a21.31,21.31,0,0,1-8.041-6.181,21.636,21.636,0,0,1-3.034-5.081c-.14-.333-.687-.2-.558.154Z" transform="translate(-4443.406 6744.978)"/></g><g transform="translate(79.346 73.19)"><path d="M4461.919-6730.688c.115.068.228.14.336.219l.078.058c-.051-.039.037.031.046.038.049.041.1.083.146.126.1.087.186.179.273.275l.055.062c.01.011.084.1.033.039.039.051.077.1.113.155.073.106.141.216.2.329a.987.987,0,0,0,.3.422.4.4,0,0,0,.322.05c-.154.043.02,0,.052,0a.405.405,0,0,0,.282-.271.4.4,0,0,0-.276-.487.322.322,0,0,0-.35.142.314.314,0,0,0,0,.309.57.57,0,0,0,.05.067.264.264,0,0,1,0-.367l.153-.089.271.071.1.165a.426.426,0,0,0-.054-.13.888.888,0,0,0-.071-.089c-.019-.023-.011-.012.023.032l-.082-.124c-.07-.1-.146-.2-.223-.3a5.011,5.011,0,0,0-.422-.454,4.228,4.228,0,0,0-1.056-.745.3.3,0,0,0-.4.1.294.294,0,0,0,.1.4Z" transform="translate(-4461.778 6731.222)"/></g><g transform="translate(81.118 72.974)"><path d="M4463.6-6730.852l.23.519.113.255.056.128a.355.355,0,0,0,.083.126.492.492,0,0,0,.2.118.37.37,0,0,0,.291-.038.418.418,0,0,0,.173-.225.668.668,0,0,0-.111-.5l-.121-.262-.237-.515a.388.388,0,0,0-.234-.179.4.4,0,0,0-.3.039.4.4,0,0,0-.179.233l-.014.1a.384.384,0,0,0,.053.2Z" transform="translate(-4463.551 6731.438)"/></g></g></g></g></svg>