<svg xmlns="http://www.w3.org/2000/svg" width="109" height="70" viewBox="0 0 109 70"><g transform="translate(-4186.583 -922.519)"><g transform="translate(4217.535 922.519)"><path d="M4266.808,960.17c1.727-4.819,1.35-10.314.646-15.321a26.607,26.607,0,0,0-4.346-11.867,23.609,23.609,0,0,0-11.681-8.323,39.134,39.134,0,0,0-9.173-1.962,23.748,23.748,0,0,0-8.433.424,27.553,27.553,0,0,0-13.734,9.082.392.392,0,0,0,.552.555,37.968,37.968,0,0,1,5.738-3.752,40.4,40.4,0,0,1,6.417-3.177c5.008-1.854,10.89-1.054,15.9.432a23.436,23.436,0,0,1,11.64,7.18,22.775,22.775,0,0,1,4.5,10.6,51,51,0,0,1,.682,6.687,24.376,24.376,0,0,1-.841,8.85c-.441,1.377,1.661,1.924,2.139.591Z" transform="translate(-4219.985 -922.519)"/></g><g transform="translate(4210.119 923.72)"><path d="M4235.28,923.825c-7.3,1.777-14.318,5.185-18.587,11.616a30.687,30.687,0,0,0-4.607,15.17,27.446,27.446,0,0,0,.335,7.541,31.628,31.628,0,0,0,3.758,9.042,83.034,83.034,0,0,0,13.178,16.46,116.432,116.432,0,0,0,9.405,8.608,1.289,1.289,0,0,0,1.761,0,127.806,127.806,0,0,0,15.68-15.769c1.011-1.208-.711-2.962-1.741-1.747a132.9,132.9,0,0,1-15.7,15.751h1.761c-2.545-2.051-4.964-4.277-7.318-6.543a97.4,97.4,0,0,1-13.032-14.929,39.859,39.859,0,0,1-4.688-8.672,21.156,21.156,0,0,1-1.289-7.622c.033-4.831.6-9.753,2.7-14.161,3.569-7.5,10.788-11.924,18.612-13.928a.425.425,0,0,0-.226-.818Z" transform="translate(-4211.981 -923.811)"/></g><g transform="translate(4224.893 936.394)"><path d="M4253.9,950.2c.535-5.753-4.463-11.623-10.011-12.585-6.167-1.069-13.391,2.931-15.345,9.01-2,6.21.983,13.71,7.083,16.221,5.635,2.319,12.623,1.412,16.2-3.924a13.717,13.717,0,0,0,1.99-9.8c-.4-2.748-1.237-6.341-3.792-7.886-.676-.409-1.312.5-.816,1.061,1.422,1.6,2.082,4.057,2.507,6.1a12.8,12.8,0,0,1-.42,7.5c-2.087,5.246-7.538,7.2-12.783,5.962a10.588,10.588,0,0,1-6.815-4.534,12.719,12.719,0,0,1-1.873-7.945c.547-5.8,6.464-10.221,12.1-10.141a10.406,10.406,0,0,1,7.4,3.388,17.649,17.649,0,0,1,3.8,7.68.4.4,0,0,0,.775-.105Z" transform="translate(-4227.924 -937.444)"/></g><g transform="translate(4229.142 939.21)"><path d="M4250.093,941.532c-2.323-1.477-5.5-1.214-8.007-.387a15.158,15.158,0,0,0-7.058,4.88c-3.88,4.872-3.032,12.216.881,16.8.761.893,2.043-.4,1.285-1.289-3.417-4-4.066-10.642-.465-14.734a14.4,14.4,0,0,1,6.107-4.114,17.188,17.188,0,0,1,7.059-.422c.411.032.507-.541.2-.737Z" transform="translate(-4232.511 -940.474)"/></g><g transform="translate(4186.583 925.54)"><path d="M4187,926.141q-.073,6.87-.228,13.737-.078,3.461-.159,6.921c-.025,1.13-.051,2.267-.011,3.4a12.454,12.454,0,0,0,.231,3.183.466.466,0,0,0,.891,0,11.745,11.745,0,0,0,.248-3.018c.05-1.128.038-2.261.026-3.39-.026-2.364-.072-4.729-.108-7.094q-.106-6.869-.12-13.737a.385.385,0,0,0-.77,0Z" transform="translate(-4186.583 -925.768)"/></g><g transform="translate(4187.28 924.842)"><path d="M4187.671,926.222a27.118,27.118,0,0,0,5.006.28q2.442.019,4.883.013c3.39,0,6.78.018,10.17-.015,6.765-.065,13.6.149,20.342-.369a.363.363,0,0,0,0-.725c-6.746-.517-13.577-.3-20.342-.369-3.39-.033-6.78-.013-10.17-.015q-2.443,0-4.883.014a27.043,27.043,0,0,0-5.006.279.474.474,0,0,0,0,.907Z" transform="translate(-4187.335 -925.017)"/></g><g transform="translate(4187.092 951.834)"><path d="M4187.6,955.7a33.623,33.623,0,0,0,5.309.2q3.406.017,6.813.014c2.227,0,4.459-.024,6.686-.087a25.55,25.55,0,0,0,5.408-.457.561.561,0,0,0,0-1.072,29.628,29.628,0,0,0-5.279-.23c-2.27,0-4.544.028-6.814.062q-3.341.052-6.685.089a37.634,37.634,0,0,0-5.437.2.669.669,0,0,0,0,1.28Z" transform="translate(-4187.131 -954.053)"/></g><g transform="translate(4192.87 930.401)"><path d="M4193.956,932.971a15.008,15.008,0,0,1,2.372-.547c.547-.032.731.232,1.121.539a2.671,2.671,0,0,0,.669.386,4.905,4.905,0,0,0,3.843-.492c.621-.284,1.41-.919,1.954-.287a1.838,1.838,0,0,0,1.217.786,3.574,3.574,0,0,0,1.79-.587,4.994,4.994,0,0,1,1.066-.339,6.81,6.81,0,0,0,1.258-.209.586.586,0,0,0,0-1.116,3.376,3.376,0,0,0-2.1.189c-.538.179-1.657,1.01-2.14.681-.431-.294-.6-.77-1.158-.908a3.1,3.1,0,0,0-1.914.48,7.837,7.837,0,0,1-2.125.749,2.528,2.528,0,0,1-2.07-.7c-1.138-.871-3.006-.031-4.136.528-.486.24-.136.959.356.846Z" transform="translate(-4193.367 -930.998)"/></g><g transform="translate(4191.752 943.254)"><path d="M4211.964,945.214c-3.318-.189-6.641-.338-9.966-.343l-4.888-.007c-1.569,0-3.218-.251-4.642.512a.636.636,0,0,0,0,1.089c1.375.738,2.938.516,4.454.513l5.076-.008c3.325,0,6.648-.153,9.966-.342a.708.708,0,0,0,0-1.415Z" transform="translate(-4192.161 -944.824)"/></g><g transform="translate(4191.753 936.331)"><path d="M4215.24,937.8c-3.853-.187-7.709-.337-11.567-.342l-5.982-.007c-1.667,0-3.716-.343-5.223.513a.637.637,0,0,0,0,1.089c1.47.835,3.436.515,5.063.513l6.142-.007c3.858,0,7.715-.156,11.567-.343a.708.708,0,0,0,0-1.415Z" transform="translate(-4192.161 -937.377)"/></g><g transform="translate(4252.583 958.845)"><g transform="translate(0 1.24)"><path d="M4258.209,963.5c-.555,8.058-.451,16.16-.2,24.228a.792.792,0,0,0,1.584,0c.251-8.068.354-16.17-.2-24.228a.592.592,0,0,0-1.184,0Z" transform="translate(-4257.807 -962.93)"/></g><g transform="translate(0.521)"><path d="M4258.979,963.976a90.954,90.954,0,0,0,10.121.149q5.049-.053,10.1-.136c3.409-.057,6.818-.154,10.228-.255a59,59,0,0,0,10.278-.826c.651-.136.412-1-.143-1.068a65.849,65.849,0,0,0-10.135-.094c-3.474.108-6.949.188-10.424.284q-5.046.141-10.1.25a97.191,97.191,0,0,0-9.929.424.636.636,0,0,0,0,1.271Z" transform="translate(-4258.369 -961.596)"/></g><g transform="translate(0.159 25.036)"><path d="M4258.678,990.692c11.006-.077,22.012.359,33.019.132,1.487-.031,2.984-.035,4.468-.145q1-.075,2.01-.169a7.911,7.911,0,0,0,1.925-.52c.509-.176.615-1.022,0-1.144a10.787,10.787,0,0,0-1.538-.308c-.611-.032-1.237.018-1.851.022-1.276.009-2.551.064-3.826.1-2.79.07-5.582.1-8.374.125-5.759.05-11.519-.006-17.276.121-2.855.062-5.708.162-8.558.336a.728.728,0,0,0,0,1.455Z" transform="translate(-4257.979 -988.527)"/></g><g transform="translate(40.716 0.542)"><path d="M4302.385,962.522c-.95,2.036-.572,4.4-.527,6.578.042,2.078.033,4.158.027,6.236-.006,2.222.008,4.441.076,6.662a20.45,20.45,0,0,0,.782,5.854.569.569,0,0,0,1.113-.152,43.827,43.827,0,0,0,.152-5.7c-.027-2.167-.017-4.333-.043-6.5-.026-2-.052-3.991-.164-5.984a41.4,41.4,0,0,1-.095-6.634.714.714,0,0,0-1.321-.359Z" transform="translate(-4301.746 -962.179)"/></g><g transform="translate(5.449 7.913)"><g transform="translate(0.173)"><path d="M4264.24,971.366c2.559.08,5.119.2,7.679.2,1.082,0,2.164-.006,3.246,0a5.408,5.408,0,0,0,2.381-.267c.6-.275.273-1.193-.321-1.193-4.33,0-8.661.253-12.984.5a.381.381,0,0,0,0,.761Z" transform="translate(-4263.874 -970.108)"/></g><g transform="translate(0.466 5.081)"><path d="M4264.575,977.006a33.583,33.583,0,0,0,6.5.343c1.1.008,2.192-.011,3.289-.035a27.891,27.891,0,0,0,3.275-.168c.921-.128.626-1.5-.21-1.552-1.017-.06-2.049.027-3.065.051-1.126.026-2.253.04-3.378.065a48.007,48.007,0,0,0-6.409.256c-.525.084-.5.937,0,1.04Z" transform="translate(-4264.19 -975.574)"/></g><g transform="translate(0 10.47)"><path d="M4264.227,983.042c2.3.207,4.612.135,6.921.112,1.136-.011,2.273-.045,3.409-.072.586-.014,1.18-.005,1.765-.05s1.329-.117,1.623-.692a.534.534,0,0,0-.081-.628,2.309,2.309,0,0,0-1.74-.319c-.578.02-1.156.033-1.734.046-1.141.028-2.281.047-3.422.087a65.262,65.262,0,0,0-6.886.441c-.649.092-.42,1.025.146,1.077Z" transform="translate(-4263.688 -981.371)"/></g></g></g><g transform="translate(4278.349 965.967)"><path d="M4285.76,982.7l11.217.1a9.742,9.742,0,0,0-1.181-4.524,4.269,4.269,0,0,0-2.5-1.7c1.078-.773,1.586-2.76,1.531-4.062a3.494,3.494,0,0,0-2.683-3.175,4.961,4.961,0,0,0-1.3-.073,4.638,4.638,0,0,0-1.5.295,3.447,3.447,0,0,0-2.021,2.677,5.3,5.3,0,0,0,.843,3.753,1.976,1.976,0,0,0,.724.526,5.728,5.728,0,0,0-3.211,4.507,5.206,5.206,0,0,0-.006,1.633c.009.053.029.117.082.123S4285.8,982.675,4285.76,982.7Z" transform="translate(-4285.612 -969.257)"/></g></g></svg>