<svg xmlns="http://www.w3.org/2000/svg" width="105" height="70" viewBox="0 0 105 70"><g transform="translate(-4633.684 -924.711)"><g transform="translate(4661.55 924.711)"><g transform="translate(0 0.575)"><path d="M4664.445,925.84c-.211,3.595-.21,7.2-.25,10.8-.055,4.925-.125,9.859-.021,14.784.034,1.59.076,3.172.176,4.758a.614.614,0,0,0,1.228,0c.226-3.594.216-7.2.208-10.8-.011-4.928-.021-9.858-.137-14.784-.038-1.588-.073-3.173-.167-4.758a.519.519,0,0,0-1.038,0Z" transform="translate(-4664.121 -925.336)"/></g><g transform="translate(0.144 30.405)"><path d="M4664.789,959.659a17.051,17.051,0,0,0,3.125.209c1.453.045,2.909.047,4.363.063,3.819.044,7.639.031,11.458.041,8.244.02,16.493.052,24.734-.073a70.35,70.35,0,0,0,8.8-.474c.773-.109.467-1.169-.168-1.25a63.591,63.591,0,0,0-7.485-.373c-3.8-.034-7.593-.021-11.391-.012-8.236.019-16.476,0-24.711.129-1.7.027-3.4.039-5.1.1a19,19,0,0,0-3.63.257.726.726,0,0,0,0,1.386Z" transform="translate(-4664.277 -957.781)"/></g><g transform="translate(0.217)"><path d="M4664.949,926.441a62.279,62.279,0,0,0,7.376.314c3.761.048,7.523.061,11.285.073q12.325.044,24.654-.057l5.439-.052a21.481,21.481,0,0,0,4.178-.2.821.821,0,0,0,0-1.57,18.237,18.237,0,0,0-3.6-.188q-2.337-.018-4.673-.031c-3.9-.026-7.8-.025-11.693-.019-8.106.013-16.214.012-24.32.142a75.168,75.168,0,0,0-8.647.351.618.618,0,0,0,0,1.235Z" transform="translate(-4664.358 -924.71)"/></g><g transform="translate(52.37 0.29)"><path d="M4721.791,925.69c-.04,1.282-.207,2.634-.249,3.96-.071,2.247-.111,4.491-.136,6.739-.056,4.878-.172,9.778.033,14.655.068,1.59.154,3.172.376,4.748a.688.688,0,0,0,1.319,0,74.693,74.693,0,0,0,.465-10.658c-.015-4.9-.011-9.8-.167-14.7-.049-1.583-.225-3.207-.274-4.743a.685.685,0,0,0-1.369,0Z" transform="translate(-4721.322 -925.026)"/></g></g><g transform="translate(4668.359 932.735)"><path d="M4672.079,934.888a50.9,50.9,0,0,0,6.245.252q1.561.01,3.123.008a21.1,21.1,0,0,0,3.1-.073c1.054-.159.54-2.013-.623-1.482a.713.713,0,0,0-.164,1.273l.57-1.384a23.621,23.621,0,0,0-3.122.048q-1.5.033-3,.055c-2.033.031-4.1-.011-6.124.214a.544.544,0,0,0,0,1.088Z" transform="translate(-4671.558 -933.438)"/></g><g transform="translate(4668.932 940.069)"><path d="M4672.682,942.983a102.271,102.271,0,0,0,10.877.381c3.61-.031,7.283.025,10.883-.239a.845.845,0,0,0,0-1.689c-3.611-.1-7.272.216-10.883.324s-7.251.181-10.877.184c-.679,0-.65.976,0,1.04Z" transform="translate(-4672.183 -941.415)"/></g><g transform="translate(4700.12 939.274)"><path d="M4706.624,941.818a41.116,41.116,0,0,0,4.347.336c.725.025,1.451.046,2.176.07.832.029,1.694.143,2.525.093a.847.847,0,0,0,.827-.732.835.835,0,0,0-.6-.927,19.05,19.05,0,0,0-2.521-.1c-.754-.009-1.508-.01-2.263,0-1.457.025-2.9.09-4.35.236-.526.053-.763.934-.137,1.021Z" transform="translate(-4706.25 -940.55)"/></g><g transform="translate(4700.12 934.912)"><path d="M4706.624,937.074a41.149,41.149,0,0,0,4.347.337c.725.025,1.451.045,2.176.07.832.028,1.694.142,2.525.093a.848.848,0,0,0,.827-.733.834.834,0,0,0-.6-.926,19.071,19.071,0,0,0-2.521-.1q-1.132-.014-2.263,0c-1.457.025-2.9.09-4.35.236-.526.053-.763.933-.137,1.021Z" transform="translate(-4706.25 -935.806)"/></g><g transform="translate(4700.12 930.304)"><path d="M4706.624,932.062a41.149,41.149,0,0,0,4.347.337c.725.025,1.451.046,2.176.07.832.029,1.694.143,2.525.093a.847.847,0,0,0,.827-.732.835.835,0,0,0-.6-.927,19.071,19.071,0,0,0-2.521-.1c-.754-.009-1.508-.01-2.263,0-1.457.025-2.9.09-4.35.236-.526.053-.763.934-.137,1.021Z" transform="translate(-4706.25 -930.794)"/></g><g transform="translate(4700.12 944.005)"><path d="M4706.624,946.963a40.891,40.891,0,0,0,4.347.337c.725.025,1.451.046,2.176.07.832.029,1.694.143,2.525.093a.846.846,0,0,0,.827-.732.835.835,0,0,0-.6-.927,19.071,19.071,0,0,0-2.521-.1c-.754-.009-1.508-.01-2.263,0-1.457.025-2.9.09-4.35.236-.526.053-.763.934-.137,1.021Z" transform="translate(-4706.25 -945.695)"/></g><g transform="translate(4700.12 948.92)"><path d="M4706.624,952.309a41.132,41.132,0,0,0,4.347.337c.725.025,1.451.046,2.176.07.832.029,1.694.143,2.525.093a.847.847,0,0,0,.827-.732.835.835,0,0,0-.6-.927,19.06,19.06,0,0,0-2.521-.1c-.754-.009-1.508-.01-2.263,0-1.457.025-2.9.09-4.35.236-.526.053-.763.934-.137,1.021Z" transform="translate(-4706.25 -951.041)"/></g><g transform="translate(4668.909 946.889)"><path d="M4672.539,950.585a62.34,62.34,0,0,0,11.008.313c1.879-.04,3.758-.1,5.636-.157a40.851,40.851,0,0,0,5.911-.3c.929-.169.589-1.439-.206-1.528a41.685,41.685,0,0,0-6.066.147c-1.758.068-3.517.132-5.274.181-3.6.1-7.283-.064-10.868.3-.536.055-.777.94-.14,1.041Z" transform="translate(-4672.158 -948.833)"/></g><g transform="translate(4709.558 975.069)"><path d="M4716.726,979.888c-.179,2.882-.2,5.763-.133,8.65.067,2.864.059,5.793.4,8.641.128,1.078,1.756,1.147,1.729,0-.068-2.878-.384-5.766-.547-8.641s-.346-5.77-.609-8.65a.419.419,0,0,0-.837,0Z" transform="translate(-4716.557 -979.483)"/></g><g transform="translate(4710.403 992.077)"><path d="M4718.012,999.8c4.5.308,9.011.432,13.526.445,2.282.007,4.566-.036,6.848-.1a47.879,47.879,0,0,0,6.556-.376c1.033-.175.741-1.755-.24-1.781-2.087-.054-4.226.211-6.316.288-2.34.085-4.681.118-7.022.164-4.451.087-8.9.113-13.352.254a.554.554,0,0,0,0,1.107Z" transform="translate(-4717.48 -997.981)"/></g><g transform="translate(4709.55 974.415)"><path d="M4716.9,980.386a92.627,92.627,0,0,0,13.876.617c2.322-.01,4.646-.037,6.969-.1q1.753-.05,3.507-.12c1.046-.041,2.344.118,3.271-.427a.766.766,0,0,0,0-1.31,6.674,6.674,0,0,0-3.088-.182q-1.66.065-3.318.112c-2.384.068-4.768.127-7.15.159-4.633.062-9.318-.089-13.939.3-.5.042-.707.871-.127.956Z" transform="translate(-4716.548 -978.772)"/></g><g transform="translate(4736.503 974.631)"><path d="M4746.275,979.3a19.783,19.783,0,0,0-.282,4.538c-.012,1.617,0,3.237.018,4.855s.043,3.235.092,4.852c.041,1.3-.239,3.3.516,4.423a.677.677,0,0,0,1.157,0c.681-1.208.276-3.084.241-4.423q-.063-2.426-.148-4.852c-.055-1.617-.116-3.239-.22-4.855a18.142,18.142,0,0,0-.577-4.538.417.417,0,0,0-.8,0Z" transform="translate(-4745.988 -979.006)"/></g><g transform="translate(4710.066 980.625)"><path d="M4717.356,986.5a15.18,15.18,0,0,0,3.575,1.433c1.179.409,2.362.81,3.543,1.218s2.367.812,3.556,1.2q.874.284,1.751.563a2.133,2.133,0,0,0,1.854.06.675.675,0,0,0,.233-.9c-.322-.636-.964-.762-1.595-.953q-.88-.266-1.757-.541c-1.193-.371-2.385-.747-3.578-1.119s-2.38-.749-3.577-1.1a13.218,13.218,0,0,0-3.743-.835.53.53,0,0,0-.263.978Z" transform="translate(-4717.112 -985.525)"/></g><g transform="translate(4723.591 978.779)"><path d="M4732.376,990.89a12.982,12.982,0,0,0,3.454-1c1.232-.5,2.45-1.041,3.646-1.62,1.168-.566,2.317-1.177,3.455-1.8q.82-.454,1.631-.924c.524-.305,1.164-.533,1.325-1.171a.674.674,0,0,0-.462-.816c-.625-.159-1.063.228-1.585.531q-.759.443-1.529.87-1.7.945-3.442,1.81c-1.131.564-2.266,1.116-3.423,1.625a29.091,29.091,0,0,0-3.327,1.547c-.4.242-.268,1.007.257.951Z" transform="translate(-4731.885 -983.518)"/></g><g transform="translate(4671.805 975.075)"><path d="M4675.79,979.894c-.275,2.916-.394,5.836-.422,8.765-.028,2.9-.135,5.863.111,8.756a.865.865,0,0,0,1.729,0c.028-2.912-.192-5.843-.26-8.756s-.154-5.846-.322-8.765a.418.418,0,0,0-.836,0Z" transform="translate(-4675.32 -979.489)"/></g><g transform="translate(4672.355 992.317)"><path d="M4676.454,1000.066c4.5.309,9.009.433,13.522.446,2.285.006,4.57-.037,6.852-.1a47.721,47.721,0,0,0,6.567-.38c1.033-.176.743-1.756-.24-1.781-2.092-.052-4.232.215-6.327.292-2.341.086-4.683.119-7.026.166-4.451.088-8.9.113-13.349.253a.554.554,0,0,0,0,1.107Z" transform="translate(-4675.922 -998.243)"/></g><g transform="translate(4672.092 974.42)"><path d="M4675.986,980.394a92.319,92.319,0,0,0,13.872.619c2.324-.01,4.648-.038,6.973-.106q1.756-.051,3.512-.121c1.047-.041,2.346.118,3.275-.427a.766.766,0,0,0,0-1.31,6.686,6.686,0,0,0-3.093-.181q-1.66.066-3.321.113c-2.386.069-4.77.129-7.155.161-4.632.063-9.315-.088-13.932.3-.5.041-.709.871-.129.956Z" transform="translate(-4675.635 -978.777)"/></g><g transform="translate(4698.625 974.631)"><path d="M4705.342,979.3a20.386,20.386,0,0,0-.431,4.6c-.066,1.638-.109,3.28-.144,4.919s-.064,3.277-.068,4.916c0,1.333-.345,3.3.38,4.478a.676.676,0,0,0,1.157,0c.715-1.2.367-3.127.376-4.478q.018-2.458.014-4.916c0-1.638-.008-3.281-.057-4.919a18.528,18.528,0,0,0-.431-4.6.415.415,0,0,0-.8,0Z" transform="translate(-4704.616 -979.006)"/></g><g transform="translate(4672.425 980.707)"><path d="M4676.242,986.593a15.072,15.072,0,0,0,3.536,1.448c1.168.414,2.339.82,3.505,1.233s2.342.823,3.518,1.216q.866.289,1.734.57a2.091,2.091,0,0,0,1.84.065.676.676,0,0,0,.235-.9c-.311-.636-.959-.765-1.583-.958q-.869-.269-1.74-.547-1.77-.567-3.539-1.135c-1.178-.376-2.354-.76-3.537-1.12a12.981,12.981,0,0,0-3.707-.849.53.53,0,0,0-.263.978Z" transform="translate(-4675.999 -985.615)"/></g><g transform="translate(4685.799 978.841)"><path d="M4691.1,991.037a13.365,13.365,0,0,0,3.5-1.017c1.251-.5,2.484-1.055,3.7-1.641,1.188-.575,2.357-1.193,3.513-1.828q.838-.461,1.663-.937c.536-.309,1.17-.535,1.346-1.18a.671.671,0,0,0-.461-.815c-.637-.152-1.074.232-1.605.54q-.774.448-1.557.881-1.731.957-3.5,1.835c-1.147.571-2.3,1.13-3.474,1.647a29.86,29.86,0,0,0-3.372,1.565c-.4.24-.268,1.009.257.951Z" transform="translate(-4690.606 -983.585)"/></g><g transform="translate(4633.684 975.057)"><path d="M4633.956,979.874a87.558,87.558,0,0,0-.258,8.834c.042,2.927.009,5.906.275,8.824a.865.865,0,0,0,1.729,0c.007-2.935-.286-5.893-.424-8.824q-.209-4.42-.486-8.834a.418.418,0,0,0-.835,0Z" transform="translate(-4633.683 -979.469)"/></g><g transform="translate(4634.369 992.437)"><path d="M4634.964,1000.2c4.5.31,9.01.434,13.523.447,2.284.006,4.569-.038,6.852-.1a47.67,47.67,0,0,0,6.564-.382c1.033-.176.743-1.756-.24-1.781-2.091-.051-4.23.217-6.324.294-2.341.086-4.683.12-7.025.166-4.452.089-8.9.114-13.351.253a.554.554,0,0,0,0,1.107Z" transform="translate(-4634.433 -998.373)"/></g><g transform="translate(4633.775 974.422)"><path d="M4634.133,980.377a94.039,94.039,0,0,0,13.981.631c2.378-.008,4.757-.034,7.136-.1q1.742-.049,3.486-.119c1.036-.041,2.324.116,3.242-.427a.767.767,0,0,0,0-1.31,6.58,6.58,0,0,0-3.062-.182q-1.74.069-3.48.116c-2.377.066-4.756.123-7.133.152-4.667.058-9.386-.1-14.04.285-.5.041-.708.871-.129.956Z" transform="translate(-4633.784 -978.779)"/></g><g transform="translate(4660.626 974.631)"><path d="M4663.729,979.3a20.7,20.7,0,0,0-.4,4.627c-.056,1.649-.088,3.3-.112,4.951s-.043,3.3-.037,4.948c.005,1.341-.324,3.324.407,4.506a.677.677,0,0,0,1.158,0c.709-1.216.349-3.142.35-4.506q0-2.474-.02-4.948c-.012-1.649-.029-3.3-.089-4.951a18.867,18.867,0,0,0-.46-4.627.416.416,0,0,0-.8,0Z" transform="translate(-4663.111 -979.006)"/></g><g transform="translate(4634.358 980.748)"><path d="M4634.664,986.637a15.123,15.123,0,0,0,3.544,1.455c1.17.416,2.344.826,3.514,1.241s2.346.827,3.525,1.223q.867.291,1.736.574a2.1,2.1,0,0,0,1.843.068.676.676,0,0,0,.235-.9c-.313-.636-.961-.767-1.585-.961q-.872-.272-1.744-.551c-1.183-.38-2.364-.763-3.547-1.142s-2.358-.766-3.545-1.128a13.027,13.027,0,0,0-3.713-.857.53.53,0,0,0-.264.978Z" transform="translate(-4634.421 -985.659)"/></g><g transform="translate(4647.763 978.871)"><path d="M4649.553,991.11a13.318,13.318,0,0,0,3.487-1.025c1.247-.507,2.477-1.062,3.687-1.652,1.185-.577,2.35-1.2,3.5-1.84q.833-.462,1.656-.942c.533-.311,1.171-.541,1.342-1.184a.671.671,0,0,0-.462-.816c-.637-.149-1.069.234-1.6.543-.512.3-1.031.6-1.55.887q-1.726.963-3.491,1.847c-1.145.575-2.294,1.137-3.465,1.657a30.1,30.1,0,0,0-3.362,1.574c-.4.241-.27,1.01.257.951Z" transform="translate(-4649.062 -983.618)"/></g><g transform="translate(4654.78 930.988)"><path d="M4656.786,931.666a.064.064,0,0,0,0-.128.064.064,0,0,0,0,.128Z" transform="translate(-4656.726 -931.538)"/></g><g transform="translate(4649.699 924.939)"><path d="M4655.465,927.134a5.668,5.668,0,0,0-2.013,3.473,1.443,1.443,0,0,0,.172,1.065,3.043,3.043,0,0,0,.385.476,3.316,3.316,0,0,0,.728.552,3.949,3.949,0,0,0,1.752.476,4.011,4.011,0,0,0,3.106-1.282,3.957,3.957,0,0,0,.772-3.7,4.509,4.509,0,0,0-2.3-2.809,4.779,4.779,0,0,0-4.1.086,5.069,5.069,0,0,0-2.618,2.988,3.389,3.389,0,0,0,.225,2.682,3.071,3.071,0,0,0,1.739,1.364,3.844,3.844,0,0,0,3.967-1.127,5.485,5.485,0,0,0,1.149-2.323,9.508,9.508,0,0,0,.2-1.346,3.588,3.588,0,0,0-.276-1.337A1.438,1.438,0,0,0,4657,925.33a1.473,1.473,0,0,0-1.357,1.037c-.067.191-.136.381-.209.57a3.52,3.52,0,0,0-.156,1.008c-.005.068-.046.406-.007.113s-.016.078-.031.156a4.609,4.609,0,0,1-.169.636c-.015.044-.033.087-.048.13-.056.165.082-.188.075-.178a3.234,3.234,0,0,0-.151.287c-.035.058-.222.31-.054.106s-.038.039-.084.086-.293.248-.049.058.02-.025-.042.012c-.012.007-.205.13-.221.116s.362-.129.218-.095c-.046.011-.091.032-.136.046-.08.025-.161.04-.242.061-.244.063.4-.023.144-.019-.08,0-.161.008-.242.005l-.1-.005c-.215-.006.213.013.219.03a1.177,1.177,0,0,0-.194-.047c.007,0-.122-.046-.125-.043.013-.011.322.165.228.093a1.514,1.514,0,0,0-.166-.1c-.153-.085.277.26.167.125a.663.663,0,0,0-.091-.094c-.077-.062.273.312.09.1s.16.235.008,0c-.02-.03-.042-.246-.006.014.033.236.008.063.011.011s0-.1,0-.148c.013-.284.046-.02-.015.063a1.207,1.207,0,0,0,.073-.293c.014-.048.035-.1.048-.143.055-.2-.134.276-.048.109a4.506,4.506,0,0,1,.267-.475,1.112,1.112,0,0,0,.1-.137c0-.005-.208.249-.1.139.058-.061.11-.128.168-.188s.138-.139.211-.2c.032-.028.065-.053.1-.082.131-.122-.249.173-.1.075s.3-.2.463-.289c.051-.027.363-.172.13-.068s.079-.023.141-.042c.092-.028.186-.053.281-.073.057-.013.343-.06.1-.025s.04,0,.1,0c.109,0,.219.009.329.01.151,0-.174-.028-.168-.026.039.012.083.014.123.022q.143.029.282.072a.992.992,0,0,0,.11.037c.131.025-.151-.066-.155-.069a2.87,2.87,0,0,0,.273.141c.067.04.129.084.193.125.19.122-.239-.223-.01,0a4.358,4.358,0,0,0,.344.364c-.193-.145-.147-.207-.077-.095.021.033.043.064.064.1.042.065.082.132.119.2a1.673,1.673,0,0,0,.121.242s-.1-.284-.066-.151c.013.049.035.1.051.145.05.158.062.33.113.485,0,0-.019-.314-.027-.176,0,.05.007.1.009.152,0,.088,0,.177-.005.265,0,.226.079-.336,0-.027-.019.074-.034.148-.056.221-.017.052-.109.3-.025.088s-.05.075-.084.131c-.019.029-.04.058-.058.087-.1.155.053-.091.084-.109-.066.037-.134.147-.192.2-.025.023-.055.043-.078.068-.1.106.234-.152.106-.083-.081.043-.156.1-.236.148s-.151.067-.22.109c.32-.2.125-.054-.009-.013-.079.023-.159.043-.239.061-.045.009-.093.015-.138.026-.15.035.3-.016.145-.022a2.919,2.919,0,0,0-.523,0c-.006,0,.305.063.18.025-.054-.016-.114-.02-.169-.033-.078-.018-.154-.043-.231-.066-.261-.078.2.115.032.016l-.234-.137c-.039-.022-.141-.1.022.022.185.144,0,0-.024-.03-.074-.071-.269-.318-.026,0l.178.659c-.011.086-.04.23,0,.063.014-.062.026-.125.04-.187q.043-.186.1-.369c.02-.061.042-.12.063-.18.071-.206-.014.046-.022.043s.185-.37.193-.384q.094-.167.2-.326c.018-.027.133-.206.04-.065s.026-.031.048-.058a4.706,4.706,0,0,1,.574-.571,1.273,1.273,0,0,0,0-1.787,1.292,1.292,0,0,0-1.78,0Z" transform="translate(-4651.176 -924.959)"/></g><g transform="translate(4650.738 951.582)"><path d="M4671.833,953.994c-7.022-.376-12.007.917-15.1,9.566,0,0-2.131-.258-3.066-.447s-1.873-.187-1.031,2.162a34.746,34.746,0,0,0,4.494,7.709c.843.847,4.495-1.692,5.992-2.726s4.12-2.256,4.026-3.008-3.745-1.786-3.745-1.786a10.876,10.876,0,0,1,2.737-6.981A25.866,25.866,0,0,1,4671.833,953.994Z" transform="translate(-4652.312 -953.937)"/></g><g transform="translate(4709.91 952.778)"><path d="M4716.941,955.293c6.353-.361,10.863.88,13.658,9.188,0,0,1.927-.249,2.774-.429s1.693-.18.932,2.077a33.95,33.95,0,0,1-4.066,7.4c-.762.813-4.065-1.626-5.421-2.618s-3.727-2.167-3.643-2.89,3.389-1.716,3.389-1.716a10.864,10.864,0,0,0-2.477-6.7A23.594,23.594,0,0,0,4716.941,955.293Z" transform="translate(-4716.941 -955.238)"/></g><g transform="translate(4680.069 951.035)"><path d="M4690.33,953.342c2.529,2.726,3.507,5.676,3.955,11.425,0,0,1.932.192,2.795.211s1.69.2.487,2.113a31.343,31.343,0,0,1-5.476,5.922c-.909.582-3.638-2.38-4.758-3.589s-3.2-2.805-2.967-3.452,3.657-.839,3.657-.839Z" transform="translate(-4684.348 -953.342)"/></g></g></svg>