<svg xmlns="http://www.w3.org/2000/svg" width="104" height="70" viewBox="0 0 104 70"><g transform="translate(-3722.933 -920.912)"><g transform="translate(3730.814 938.688)"><path d="M3751.4,941.687c-19.651,2.1-20.306,23.616-19.041,27.936,1.588,5.424,4.77,10.6,9.564,13.579a22.446,22.446,0,0,0,7.134,2.729,34.29,34.29,0,0,0,12.754.331,21.483,21.483,0,0,0,8.846-3.38c6.553-4.418,8.244-14.569,8.126-18.334-.092-2.891,0-16.959-13.89-21.55a33.02,33.02,0,0,0-13.624-1.575,19.99,19.99,0,0,0-11.922,5.642" transform="translate(-3731.965 -941.252)"/></g><g transform="translate(3722.933 930.551)"><path d="M3741.031,936.294c-2-1.974-4.392-3.942-7.272-4.3s-5.626,1.055-7.677,2.977a9.421,9.421,0,0,0-3.135,7.33c.173,2.911,1.888,5.28,4.014,7.146a1.188,1.188,0,0,0,1.846-.239,25.212,25.212,0,0,1,2.985-4.425,28.862,28.862,0,0,1,3.706-3.778c1.6-1.345,3.491-2.2,5.11-3.492.808-.642-.108-1.674-.9-1.546-2.118.343-4.063,1.91-5.688,3.248a28.652,28.652,0,0,0-3.883,3.911,28.054,28.054,0,0,0-3.361,4.894l1.846-.239c-1.625-1.432-3.163-3.215-3.308-5.48a7.154,7.154,0,0,1,2.408-5.687c1.6-1.515,3.758-2.792,6.036-2.536a12.646,12.646,0,0,1,6.392,3.095c.606.5,1.46-.308.88-.88Z" transform="translate(-3722.933 -931.941)"/></g><g transform="translate(3768.082 931.124)"><path d="M3775.746,937.83a12.676,12.676,0,0,1,6.392-3.1c2.272-.26,4.445,1.022,6.036,2.536a7.163,7.163,0,0,1,2.409,5.688c-.146,2.264-1.682,4.047-3.309,5.48l1.847.238a28.025,28.025,0,0,0-3.361-4.893,28.749,28.749,0,0,0-3.884-3.912c-1.623-1.337-3.571-2.9-5.688-3.248-.79-.128-1.708.9-.9,1.547,1.619,1.286,3.51,2.147,5.109,3.491a28.9,28.9,0,0,1,3.707,3.778,25.234,25.234,0,0,1,2.985,4.425,1.19,1.19,0,0,0,1.847.239c2.126-1.865,3.839-4.235,4.012-7.145a9.424,9.424,0,0,0-3.135-7.331c-2.051-1.922-4.8-3.331-7.677-2.976s-5.272,2.324-7.271,4.3c-.58.572.274,1.385.88.881Z" transform="translate(-3774.673 -932.597)"/></g><g transform="translate(3736.08 980.564)"><path d="M3739.935,999.17a31.263,31.263,0,0,0,2.742-3.7c.42-.616.805-1.258,1.2-1.887.184-.29.4-.578.558-.883.108-.154.108-.167,0-.039l.188-.221a3.8,3.8,0,0,0,.5-.668,1.736,1.736,0,0,0-2.368-2.374,1.588,1.588,0,0,0-.79,1.379l0,.037a1.6,1.6,0,0,0,1.138,1.5l.032.006a1.558,1.558,0,0,0,1.708-.7l.013-.024-1.752.714.028.005-1.114-1.115.01.032.421-1.6a2.775,2.775,0,0,0-.31.393q-.305.705-.094.237c-.079.179-.155.359-.23.539s-.072.179,0,.016c-.192.348-.4.69-.594,1.034-.372.646-.758,1.286-1.114,1.94a30.373,30.373,0,0,0-2.051,4.278,1.132,1.132,0,0,0,1.877,1.1Z" transform="translate(-3737.999 -989.168)"/></g><g transform="translate(3766.032 980.611)"><path d="M3779.093,998.082a29.576,29.576,0,0,0-1.744-4.16c-.306-.656-.654-1.294-.982-1.938-.159-.311-.321-.621-.477-.934.052.163.049.155-.01-.022-.031-.094-.063-.185-.1-.276a2.308,2.308,0,0,0-.292-.71l.166,1.271.008-.033-1.115,1.117.025-.005-1.754-.715.011.022a1.479,1.479,0,0,0,1.306.75l.023,0a1.592,1.592,0,0,0,1.5-1.142l0-.025a1.688,1.688,0,0,0-.734-1.806,1.571,1.571,0,0,0-1.347-.169,1.828,1.828,0,0,0-1.122,1,1.75,1.75,0,0,0,.087,1.542,6.784,6.784,0,0,0,.484.67c.116.144.119.152.006.024l.111.2.553.975c.344.607.675,1.224,1.041,1.818a29.137,29.137,0,0,0,2.47,3.643c.742.876,2.178-.061,1.877-1.094Z" transform="translate(-3772.323 -989.222)"/></g><g transform="translate(3789.847 920.912)"><g transform="translate(0.232 10.255)"><path d="M3799.9,933.015c.963,3.219,2.151,6.366,3.333,9.508.656,1.745,1.3,3.494,1.967,5.237q.416,1.1.819,2.2a7.028,7.028,0,0,0,.745,1.85.378.378,0,0,0,.7-.19,5.492,5.492,0,0,0-.5-1.821c-.267-.768-.544-1.533-.822-2.3-.641-1.752-1.326-3.489-2-5.227-1.22-3.136-2.541-6.243-3.655-9.417-.127-.364-.7-.217-.582.16Z" transform="translate(-3799.881 -932.646)"/></g><path d="M3800.473,932.049c4.828-2.111,9.716-4.035,14.729-5.663,2.339-.759,4.689-1.483,7.036-2.214,1.241-.386,2.487-.762,3.72-1.171,1.075-.356,2.789-.6,3.481-1.549a.318.318,0,0,0-.188-.462,2.881,2.881,0,0,0-1.8.227c-.719.214-1.441.42-2.159.641-1.234.378-2.465.77-3.7,1.152-2.385.739-4.772,1.476-7.143,2.264a123.714,123.714,0,0,0-14.547,5.8c-.66.316-.084,1.255.567.971Z" transform="translate(-3799.614 -920.912)"/><g transform="translate(28.809 0.097)"><path d="M3832.677,921.782q1.878,4.822,3.557,9.717.8,2.335,1.537,4.69a23.038,23.038,0,0,0,1.717,4.954.541.541,0,0,0,1-.272,19.133,19.133,0,0,0-1.266-4.909q-.771-2.433-1.605-4.846c-1.132-3.265-2.4-6.479-3.718-9.673-.305-.74-1.521-.431-1.222.337Z" transform="translate(-3832.629 -921.023)"/></g><g transform="translate(6.769 18.932)"><path d="M3808.123,953.644c3.466-1.309,7.088-2.243,10.63-3.312,4.517-1.362,9.043-2.7,13.546-4.1a25.311,25.311,0,0,0,4.962-1.715.887.887,0,0,0,.312-1.194,1.367,1.367,0,0,0-.853-.7c-.646-.246-1.015.541-.8,1.039l.03.1.639-.841c-1.395.334-2.769.972-4.131,1.425-2.106.7-4.221,1.371-6.337,2.039-4.477,1.412-8.969,2.778-13.417,4.281-1.647.557-3.308,1.1-4.915,1.768-.73.3-.434,1.5.333,1.213Z" transform="translate(-3807.371 -942.575)"/></g></g><g transform="translate(3791.432 931.318)"><path d="M3801.83,933.926c2.8.516,5.6,1.087,8.383,1.677s5.589,1.275,8.4,1.727c1.177.189,1.709-1.5.5-1.831a71.991,71.991,0,0,0-8.594-1.64c-2.842-.419-5.686-.75-8.544-1.037-.625-.064-.771.989-.149,1.1Z" transform="translate(-3801.43 -932.819)"/></g><g transform="translate(3809.132 921.988)"><path d="M3830.981,922.341c-1.426,1.659-2.945,3.234-4.367,4.895-.66.77-1.335,1.528-1.964,2.324-.576.728-1.034,1.526-1.578,2.275-.4.552-1.564,1.2-1.326,1.987.348,1.146,1.735.229,2.206-.28a16.577,16.577,0,0,0,1.5-2.131c.546-.82,1.175-1.579,1.793-2.346,1.559-1.936,3.017-3.948,4.572-5.887.469-.584-.333-1.424-.837-.838Z" transform="translate(-3821.714 -922.143)"/></g><g transform="translate(3786.854 952.375)"><path d="M3796.638,962.4a46.512,46.512,0,0,1,4.624-2.641,50.783,50.783,0,0,0,4.762-2.343.273.273,0,0,0-.209-.5,15.349,15.349,0,0,0-4.954,1.986,38.715,38.715,0,0,0-4.54,2.952c-.317.235-.027.77.317.543Z" transform="translate(-3796.185 -956.913)"/></g><g transform="translate(3785.832 953.751)"><path d="M3795.574,967.539c3.474-1.493,6.961-2.965,10.468-4.379,1.717-.692,3.447-1.349,5.171-2.021a48.946,48.946,0,0,0,4.9-2c.373-.195.1-.709-.27-.641a34.274,34.274,0,0,0-5.291,1.64c-1.8.644-3.574,1.363-5.342,2.091q-5.119,2.111-10.01,4.677c-.429.225-.052.819.372.637Z" transform="translate(-3795.013 -958.488)"/></g><g transform="translate(3744.159 921.443)"><path d="M3747.26,921.969a14.887,14.887,0,0,0,.661,2.506c.239.854.48,1.707.7,2.565s.431,1.72.62,2.587a4.629,4.629,0,0,0,.82,2.347.418.418,0,0,0,.654-.085,4.018,4.018,0,0,0-.125-2.438q-.308-1.342-.674-2.671c-.235-.856-.487-1.705-.778-2.544a11.066,11.066,0,0,0-1.007-2.5c-.235-.352-.922-.264-.874.237Z" transform="translate(-3747.257 -921.519)"/></g><g transform="translate(3754.649 923.716)"><path d="M3759.744,924.553c-.163.919-.29,1.845-.373,2.775-.039.438-.071.878-.089,1.317-.01.238,0,.474.017.711a1.831,1.831,0,0,0,.171.739.461.461,0,0,0,.792,0,3.487,3.487,0,0,0,.235-1.348c.023-.44.038-.878.073-1.317q.1-1.287.316-2.561a.61.61,0,0,0-.414-.729.6.6,0,0,0-.728.413Z" transform="translate(-3759.279 -924.12)"/></g><g transform="translate(3761.217 926.051)"><path d="M3769.115,927.035a21.111,21.111,0,0,0-1.361,1.862c-.19.294-.369.593-.529.9q-.128.246-.249.5a1.707,1.707,0,0,0-.15.362,1.445,1.445,0,0,0,.022.558.69.69,0,0,0,1,.408,1.251,1.251,0,0,0,.54-.536q.123-.214.251-.423c.183-.3.366-.594.553-.889s.371-.566.568-.841q.142-.2.292-.4c.016-.02.123-.161.046-.061s.015-.02.029-.037l.173-.217a.909.909,0,0,0,.246-.594.84.84,0,0,0-1.433-.594Z" transform="translate(-3766.806 -926.792)"/></g><g transform="translate(3776.227 961.612)"><g transform="translate(23.626 3.031)"><path d="M3811.132,971.446c-.073,2.158-.062,4.315-.008,6.472.027,1.058.052,2.117.08,3.175.024.922-.122,2.313.393,3.109a.6.6,0,0,0,1.021,0,6.1,6.1,0,0,0,.19-2.986c-.047-1.1-.108-2.2-.162-3.3-.107-2.162-.256-4.32-.488-6.472a.513.513,0,0,0-1.026,0Z" transform="translate(-3811.081 -970.95)"/></g><g transform="translate(23.721)"><path d="M3811.628,970.937c4.171-.088,8.324-.448,12.479-.8q3.072-.261,6.142-.54l3.072-.281a5.894,5.894,0,0,0,2.81-.538c.341-.234.463-.872,0-1.075a5.045,5.045,0,0,0-2.618-.093l-3.264.308q-3.169.3-6.334.622c-4.146.419-8.292.836-12.405,1.516-.5.083-.377.89.118.879Z" transform="translate(-3811.189 -967.482)"/></g><g transform="translate(0 18.886)"><path d="M3784.181,989.588a27.8,27.8,0,0,0,6.337.48c3.746.125,7.5.181,11.244.228,5.681.072,11.374.267,17.054.251,2.545-.007,5.092-.068,7.636-.15a45.819,45.819,0,0,0,6.1-.386c.431-.073.3-.71-.1-.731-1.756-.093-3.509.043-5.265.1-2.292.08-4.583.149-6.874.185-2.459.039-4.911-.045-7.368-.072-6.99-.074-13.98-.066-20.969-.177a74.922,74.922,0,0,1-7.726-.225c-.285-.034-.332.42-.066.493Z" transform="translate(-3784.006 -989.093)"/></g><g transform="translate(47.287 0.826)"><path d="M3838.887,968.889a27.325,27.325,0,0,0-.448,4.356c-.1,1.511-.158,3.024-.2,4.537-.079,3.026-.051,6.053.036,9.078.042,1.487,2.382,1.009,1.9-.257a1.873,1.873,0,0,0-.435-.739.7.7,0,0,0-.965,0,1.318,1.318,0,0,0-.365.507l1.8.489c-.091-2.967-.113-5.936-.1-8.9.006-1.455.038-2.909.046-4.364a38.53,38.53,0,0,0-.011-4.534c-.076-.665-1.076-.932-1.256-.17Z" transform="translate(-3838.195 -968.427)"/></g><g transform="translate(24.114 3.255)"><path d="M3811.8,971.988a58.8,58.8,0,0,0,5.57,3.708c.92.6,1.837,1.2,2.736,1.823s1.732,1.349,2.639,1.952c.665.442,1.422-.557.849-1.1a21.182,21.182,0,0,0-2.608-1.952q-1.352-.932-2.752-1.792a49.907,49.907,0,0,0-5.862-3.379c-.442-.195-1.021.369-.571.741Z" transform="translate(-3811.64 -971.207)"/></g><g transform="translate(34.768 1.355)"><path d="M3824.522,979.329a70.8,70.8,0,0,0,7.207-4.273q1.687-1.13,3.329-2.328.872-.634,1.73-1.289a9.36,9.36,0,0,0,1.59-1.336.632.632,0,0,0-.761-.988,10.162,10.162,0,0,0-1.57,1.154q-.828.654-1.672,1.289-1.675,1.264-3.4,2.458c-2.262,1.568-4.587,3.057-6.91,4.53a.453.453,0,0,0,.456.783Z" transform="translate(-3823.848 -969.033)"/></g><g transform="translate(8.5 13.042)"><path d="M3794.153,983.852c2.038.086,4.087-.057,6.122-.155,1.143-.054,2.287-.113,3.43-.162a10.918,10.918,0,0,0,2.625-.244.366.366,0,0,0,0-.7,6.9,6.9,0,0,0-2.553-.135c-1.168.053-2.335.129-3.5.208-2.034.136-4.083.34-6.122.344a.422.422,0,0,0,0,.843Z" transform="translate(-3793.746 -982.406)"/></g></g><g transform="translate(3752.198 947.284)"><path d="M3757.29,951.548a11.871,11.871,0,0,0-.452,3.551c-.074,1.318-.094,2.639-.131,3.958-.037,1.278-.066,2.555-.1,3.831-.029,1.143-.523,2.939.536,3.813a1.345,1.345,0,0,0,1.7,0c1.044-.862.566-2.572.538-3.7-.033-1.315-.063-2.631-.1-3.947-.037-1.28-.054-2.562-.125-3.842a12.28,12.28,0,0,0-.459-3.667.768.768,0,0,0-1.407,0Z" transform="translate(-3756.469 -951.088)" fill="#f7f6f4"/><g transform="translate(0.216 13.703)"><path d="M3767.8,972.93c-.16-.133-.267-.367-.446-.551a4.727,4.727,0,0,0-.737-.567c-.374-.254-.766-.474-1.147-.717-.695-.442-1.4-.868-2.072-1.34s-1.317-.941-1.979-1.408q-.562-.4-1.129-.784c-.685-.466-1.443-1.043-2.32-.685a1.773,1.773,0,0,0-1.254,1.648,2.015,2.015,0,0,0,.913,1.673c.205.144.423.271.633.408.407.267.81.538,1.212.813.7.481,1.4.964,2.13,1.408a16.33,16.33,0,0,0,2.463,1.27,8.28,8.28,0,0,0,1.324.447,4.689,4.689,0,0,0,.941.135c.265,0,.548-.121.793-.121a.964.964,0,0,0,.673-1.629Z" transform="translate(-3756.717 -966.768)" fill="#f7f6f4"/></g></g><g transform="translate(3756.705 943.816)"><g transform="translate(13.205 21.471)"><path d="M3778.062,973.848a1.092,1.092,0,0,0-.475-2.131,1.092,1.092,0,0,0,.475,2.131Z" transform="translate(-3776.767 -971.688)" fill="#f7f6f4"/></g><g transform="translate(12.088 12.187)"><path d="M3776.782,963.224a1.092,1.092,0,0,0-.475-2.13,1.092,1.092,0,0,0,.475,2.13Z" transform="translate(-3775.488 -961.065)" fill="#f7f6f4"/></g><g transform="translate(7.794 3.759)"><path d="M3771.862,953.581a1.092,1.092,0,0,0-.475-2.131,1.092,1.092,0,0,0,.475,2.131Z" transform="translate(-3770.567 -951.421)" fill="#f7f6f4"/></g><path d="M3762.929,949.28a1.092,1.092,0,0,0-.475-2.131,1.092,1.092,0,0,0,.475,2.131Z" transform="translate(-3761.635 -947.12)" fill="#f7f6f4"/></g></g></svg>